<svg width="951" height="173" viewBox="0 0 951 173" fill="none" xmlns="http://www.w3.org/2000/svg">
<path d="M3 169.93L22.953 2.29946H67.6691L87.9784 169.93H56.8018L54.1296 142.337H36.6707L34.1766 169.93H3ZM39.1648 110.144H51.4573L48.6069 74.7326L45.9346 40.4706H44.6875L42.3716 74.9626L39.1648 110.144Z" fill="white"/>
<path d="M89.8017 169.93V2.29946H125.61C150.195 2.29946 166.763 13.5668 166.763 51.0481C166.763 72.893 160.884 86.4599 151.799 90.5989V92.2086C161.775 94.508 164.804 109.455 164.804 126.011V152.914C164.804 160.043 165.338 165.102 166.051 169.93H133.805C132.736 165.332 132.38 158.433 132.38 155.444V130.61C132.38 122.562 132.202 112.904 126.145 112.904H121.691V169.93H89.8017ZM121.691 80.7112H124.007C132.736 80.7112 134.696 73.123 134.696 59.5562C134.696 43.9198 131.489 38.4011 123.829 38.4011H121.691V80.7112Z" fill="white"/>
<path d="M170.443 169.93V2.29946H206.252C233.509 2.29946 247.227 21.8449 247.227 61.6257C247.227 101.866 233.509 121.182 206.252 121.182H202.332V169.93H170.443ZM205.183 38.4011H202.332V85.0802H205.183C213.378 85.0802 214.981 76.1123 214.981 61.1658C214.981 43.4599 211.774 38.4011 205.183 38.4011Z" fill="white"/>
<path d="M250.215 169.93V2.29946H283.529V169.93H250.215Z" fill="white"/>
<path d="M302.443 169.93V38.861H286.765V2.29946H351.791V38.861H335.223V169.93H302.443Z" fill="white"/>
<path d="M375.156 169.93L395.109 2.29946H439.825L460.135 169.93H428.958L426.286 142.337H408.827L406.333 169.93H375.156ZM411.321 110.144H423.614L420.763 74.7326L418.091 40.4706H416.844L414.528 74.9626L411.321 110.144Z" fill="white"/>
<path d="M498.227 172C465.269 172 456.896 137.048 456.896 84.8503C456.896 17.7059 473.999 0 498.94 0C525.306 0 537.421 22.7647 537.243 63.0053H506.957C506.957 42.3102 504.106 35.8717 498.584 35.8717C491.101 35.8717 489.141 45.7594 489.141 84.8503C489.141 125.781 491.101 136.128 498.94 136.128C505.353 136.128 506.957 127.39 506.957 111.524V109.225H498.405V78.1818H537.243V112.674C537.243 152.914 521.743 172 498.227 172Z" fill="white"/>
<path d="M542.252 169.93V2.29946H578.06C602.645 2.29946 619.213 13.5668 619.213 51.0481C619.213 72.893 613.334 86.4599 604.248 90.5989V92.2086C614.225 94.508 617.254 109.455 617.254 126.011V152.914C617.254 160.043 617.788 165.102 618.501 169.93H586.255C585.186 165.332 584.83 158.433 584.83 155.444V130.61C584.83 122.562 584.652 112.904 578.595 112.904H574.141V169.93H542.252ZM574.141 80.7112H576.457C585.186 80.7112 587.146 73.123 587.146 59.5562C587.146 43.9198 583.939 38.4011 576.279 38.4011H574.141V80.7112Z" fill="white"/>
<path d="M618.125 169.93L638.078 2.29946H682.794L703.103 169.93H671.927L669.254 142.337H651.795L649.301 169.93H618.125ZM654.29 110.144H666.582L663.732 74.7326L661.059 40.4706H659.812L657.496 74.9626L654.29 110.144Z" fill="white"/>
<path d="M707.812 169.93L691.422 2.29946H723.311L727.943 82.5508L729.724 126.011H730.971L738.81 2.29946H774.619L782.457 126.471H783.704L784.773 83.0107L789.405 2.29946H821.473L805.083 169.93H762.682L757.338 60.7059H756.269L750.034 169.93H707.812Z" fill="white"/>
<path d="M809.506 169.93L829.459 2.29946H874.175L894.484 169.93H863.308L860.635 142.337H843.176L840.682 169.93H809.506ZM845.671 110.144H857.963L855.113 74.7326L852.44 40.4706H851.193L848.877 74.9626L845.671 110.144Z" fill="white"/>
<path d="M896.307 169.93V2.29946H927.84V132.449H951V169.93H896.307Z" fill="white"/>
</svg>
