<svg width="692" height="211" viewBox="0 0 692 211" fill="none" xmlns="http://www.w3.org/2000/svg">
<g clip-path="url(#clip0_10_5)">
<path d="M289.259 87.1857L317.364 0H347.861L375.966 87.1857H353.721L348.459 70.4422H316.766L311.623 87.1857H289.259ZM321.669 54.0575H343.675L337.336 34.2045L333.031 19.3746H332.313L327.888 34.2045L321.669 54.0575Z" fill="black"/>
<path d="M382.263 87.1857V0H426.514C431.776 0 436.361 0.558116 440.268 1.67435C444.174 2.79058 447.404 4.46492 449.955 6.69739C452.586 8.85012 454.539 11.4812 455.815 14.5907C457.091 17.7002 457.729 21.328 457.729 25.474C457.729 30.5768 456.373 35.0417 453.662 38.8688C450.952 42.6161 447.284 45.0479 442.66 46.1641V47.0013C446.965 47.8784 450.194 49.6723 452.347 52.3831C454.5 55.094 455.576 58.8812 455.576 63.7448V76.9004C455.576 78.5747 455.616 80.2889 455.696 82.043C455.855 83.7174 456.294 85.4316 457.011 87.1857H435.484C435.005 86.1492 434.647 84.7539 434.407 82.9998C434.168 81.166 434.049 79.1328 434.049 76.9004V67.4523C434.049 65.1401 433.69 63.2265 432.972 61.7117C432.334 60.117 431.138 58.8812 429.384 58.0042C427.63 57.1271 425.119 56.6886 421.85 56.6886H403.671V87.1857H382.263ZM403.671 39.8255H423.405C427.869 39.8255 431.019 38.7492 432.853 36.5964C434.766 34.4437 435.723 31.7329 435.723 28.4639C435.723 25.7531 435.205 23.6402 434.168 22.1253C433.132 20.5307 431.697 19.3746 429.863 18.657C428.029 17.9394 425.876 17.5806 423.405 17.5806H403.671V39.8255Z" fill="black"/>
<path d="M468.401 87.1857V0H506.911C511.615 0 515.92 0.637845 519.827 1.91354C523.734 3.18923 527.043 5.10277 529.754 7.65416C532.544 10.1258 534.697 13.1556 536.212 16.7435C537.727 20.3314 538.484 24.4375 538.484 29.0619C538.484 34.8822 537.248 40.0249 534.777 44.4898C532.305 48.875 528.717 52.3034 524.013 54.7751C519.309 57.2467 513.608 58.4826 506.911 58.4826H488.015V41.9783H503.084C505.396 41.9783 507.549 41.6594 509.542 41.0215C511.615 40.3837 513.289 39.1877 514.565 37.4336C515.92 35.6795 516.598 33.168 516.598 29.8991C516.598 26.6301 515.92 24.1584 514.565 22.4841C513.289 20.8097 511.615 19.6536 509.542 19.0158C507.549 18.378 505.396 18.059 503.084 18.059H487.297L489.808 15.4279V87.1857H468.401Z" fill="black"/>
<path d="M547.414 87.1857V0H568.821V87.1857H547.414Z" fill="black"/>
<path d="M601.13 87.1857V18.4178H576.254V0H648.131V18.4178H622.657V87.1857H601.13Z" fill="black"/>
<path d="M42.9373 211.003L71.0424 123.817H101.539L129.645 211.003H107.4L102.137 194.259H70.4444L65.3018 211.003H42.9373ZM75.3478 177.875H97.3535L91.0149 158.022L86.7095 143.192H85.9919L81.5668 158.022L75.3478 177.875Z" fill="black"/>
<path d="M170.948 212.199C164.091 212.199 157.952 211.123 152.53 208.97C147.188 206.817 142.644 203.787 138.896 199.88C135.229 195.894 132.398 191.15 130.405 185.649C128.492 180.147 127.535 174.048 127.535 167.35C127.535 160.175 128.571 153.836 130.644 148.334C132.797 142.833 135.827 138.169 139.734 134.342C143.64 130.515 148.305 127.604 153.726 125.611C159.228 123.618 165.287 122.621 171.905 122.621C179.878 122.621 186.815 123.937 192.715 126.568C198.615 129.119 203.279 132.707 206.707 137.332C210.136 141.876 212.169 147.218 212.807 153.358H190.682C190.123 150.726 189.007 148.494 187.333 146.66C185.659 144.826 183.506 143.431 180.875 142.474C178.323 141.438 175.333 140.92 171.905 140.92C167.44 140.92 163.493 141.876 160.065 143.79C156.716 145.624 154.125 148.494 152.291 152.401C150.457 156.308 149.54 161.291 149.54 167.35C149.54 171.895 150.019 175.881 150.976 179.31C152.012 182.738 153.487 185.569 155.401 187.801C157.314 189.954 159.626 191.588 162.337 192.705C165.048 193.821 168.038 194.379 171.307 194.379C175.772 194.379 179.559 193.622 182.669 192.107C185.858 190.592 188.29 188.439 189.964 185.649C191.718 182.858 192.595 179.549 192.595 175.722V172.373L198.216 179.071H170.47V164.002H214.242V173.45C214.242 179.27 213.206 184.572 211.133 189.356C209.06 194.14 206.109 198.206 202.282 201.555C198.535 204.904 193.99 207.535 188.648 209.448C183.386 211.282 177.486 212.199 170.948 212.199Z" fill="black"/>
<path d="M224.649 211.003V123.817H268.899C274.162 123.817 278.746 124.375 282.653 125.492C286.56 126.608 289.789 128.282 292.34 130.515C294.971 132.667 296.925 135.298 298.2 138.408C299.476 141.518 300.114 145.145 300.114 149.291C300.114 154.394 298.759 158.859 296.048 162.686C293.337 166.433 289.669 168.865 285.045 169.981V170.819C289.35 171.696 292.579 173.49 294.732 176.2C296.885 178.911 297.961 182.698 297.961 187.562V200.718C297.961 202.392 298.001 204.106 298.081 205.86C298.24 207.535 298.679 209.249 299.396 211.003H277.869C277.391 209.966 277.032 208.571 276.793 206.817C276.554 204.983 276.434 202.95 276.434 200.718V191.27C276.434 188.957 276.075 187.044 275.358 185.529C274.72 183.934 273.524 182.698 271.77 181.821C270.016 180.944 267.504 180.506 264.235 180.506H246.056V211.003H224.649ZM246.056 163.643H265.79C270.255 163.643 273.404 162.566 275.238 160.414C277.151 158.261 278.108 155.55 278.108 152.281C278.108 149.57 277.59 147.457 276.554 145.943C275.517 144.348 274.082 143.192 272.248 142.474C270.414 141.757 268.262 141.398 265.79 141.398H246.056V163.643Z" fill="black"/>
<path d="M301.816 211.003L329.921 123.817H360.418L388.524 211.003H366.279L361.016 194.259H329.323L324.181 211.003H301.816ZM334.227 177.875H356.233L349.894 158.022L345.589 143.192H344.871L340.446 158.022L334.227 177.875Z" fill="black"/>
<path d="M401.48 211.003L383.421 123.817H407.101L414.157 165.437L417.506 187.562H418.463L429.944 123.817H456.136L467.976 187.801H468.932L471.922 165.676L478.62 123.817H502.3L484.241 211.003H454.94L443.458 152.999H442.502L430.781 211.003H401.48Z" fill="black"/>
<path d="M496.165 211.003L524.27 123.817H554.767L582.872 211.003H560.627L555.365 194.259H523.672L518.529 211.003H496.165ZM528.575 177.875H550.581L544.243 158.022L539.937 143.192H539.22L534.794 158.022L528.575 177.875Z" fill="black"/>
<path d="M589.17 211.003V123.817H610.577V195.216L607.707 191.987H648.131V211.003H589.17Z" fill="black"/>
<path d="M42.6875 32.3121H255.147V54.8243H42.6875V32.3121Z" fill="black"/>
</g>
<defs>
<clipPath id="clip0_10_5">
<rect width="690.545" height="211" fill="white" transform="translate(0.727272)"/>
</clipPath>
</defs>
</svg>
