<svg width="54" height="13" viewBox="0 0 54 13" fill="none" xmlns="http://www.w3.org/2000/svg">
<g clip-path="url(#clip0_15_23)">
<path fill-rule="evenodd" clip-rule="evenodd" d="M2.73114 6.92316H1.24878V8.25286H2.77262C3.33907 8.25286 3.68024 8.04558 3.68024 7.59661V7.57914C3.68024 7.17345 3.38885 6.92316 2.73114 6.92316ZM3.35566 5.16142C3.35566 4.76434 3.05598 4.53985 2.51467 4.53985H1.24878V5.81794H2.43146C2.99739 5.81794 3.35566 5.62787 3.35566 5.1789V5.16142ZM0 3.37415H2.706C3.37251 3.37415 3.89697 3.56395 4.22984 3.90941C4.4966 4.18552 4.62959 4.52238 4.62959 4.93694V4.95441C4.62959 5.63647 4.28013 6.01635 3.86352 6.25804C4.53808 6.52581 4.95442 6.93176 4.95442 7.7434V7.76061C4.95442 8.8661 4.08829 9.41857 2.77262 9.41857H0V3.37415Z" fill="black"/>
<path fill-rule="evenodd" clip-rule="evenodd" d="M2.73114 6.92316H1.24878V8.25286H2.77262C3.33907 8.25286 3.68024 8.04558 3.68024 7.59661V7.57914C3.68024 7.17345 3.38885 6.92316 2.73114 6.92316ZM3.35566 5.16142C3.35566 4.76434 3.05598 4.53985 2.51467 4.53985H1.24878V5.81794H2.43146C2.99739 5.81794 3.35566 5.62787 3.35566 5.1789V5.16142ZM0 3.37415H2.706C3.37251 3.37415 3.89697 3.56395 4.22984 3.90941C4.4966 4.18552 4.62959 4.52238 4.62959 4.93694V4.95441C4.62959 5.63647 4.28013 6.01635 3.86352 6.25804C4.53808 6.52581 4.95442 6.93176 4.95442 7.7434V7.76061C4.95442 8.8661 4.08829 9.41857 2.77262 9.41857H0V3.37415Z" stroke="black" stroke-width="0.290504"/>
<path fill-rule="evenodd" clip-rule="evenodd" d="M10.626 6.30993C11.2505 6.30993 11.6085 5.96473 11.6085 5.455V5.43779C11.6085 4.86811 11.2256 4.57427 10.6008 4.57427H9.3269V6.30993H10.626ZM8.04468 3.37415H10.7092C11.4504 3.37415 12.0249 3.59003 12.4078 3.98711C12.7326 4.32397 12.9076 4.79902 12.9076 5.3687V5.38591C12.9076 6.36181 12.3997 6.97505 11.6583 7.25975L13.0826 9.41857H11.5834L10.3346 7.48424H9.3269V9.41857H8.04468V3.37415Z" fill="black"/>
<path fill-rule="evenodd" clip-rule="evenodd" d="M10.626 6.30993C11.2505 6.30993 11.6085 5.96473 11.6085 5.455V5.43779C11.6085 4.86811 11.2256 4.57427 10.6008 4.57427H9.3269V6.30993H10.626ZM8.04468 3.37415H10.7092C11.4504 3.37415 12.0249 3.59003 12.4078 3.98711C12.7326 4.32397 12.9076 4.79902 12.9076 5.3687V5.38591C12.9076 6.36181 12.3997 6.97505 11.6583 7.25975L13.0826 9.41857H11.5834L10.3346 7.48424H9.3269V9.41857H8.04468V3.37415Z" stroke="black" stroke-width="0.290504"/>
<path fill-rule="evenodd" clip-rule="evenodd" d="M16.9834 6.82826V3.37415H18.2656V6.79358C18.2656 7.77808 18.7403 8.28754 19.5232 8.28754C20.3056 8.28754 20.7803 7.79556 20.7803 6.83686V3.37415H22.0628V6.78497C22.0628 8.61553 21.0719 9.51374 19.5064 9.51374C17.9408 9.51374 16.9834 8.60693 16.9834 6.82826Z" fill="black"/>
<path fill-rule="evenodd" clip-rule="evenodd" d="M16.9834 6.82826V3.37415H18.2656V6.79358C18.2656 7.77808 18.7403 8.28754 19.5232 8.28754C20.3056 8.28754 20.7803 7.79556 20.7803 6.83686V3.37415H22.0628V6.78497C22.0628 8.61553 21.0719 9.51374 19.5064 9.51374C17.9408 9.51374 16.9834 8.60693 16.9834 6.82826Z" stroke="black" stroke-width="0.290504"/>
<path fill-rule="evenodd" clip-rule="evenodd" d="M25.4749 6.5172V6.5C25.4749 4.78155 26.7239 3.37415 28.5142 3.37415C29.6134 3.37415 30.2711 3.75402 30.8124 4.3065L29.9963 5.2824C29.5468 4.85924 29.0887 4.60008 28.5057 4.60008C27.5231 4.60008 26.8157 5.44667 26.8157 6.48252V6.5C26.8157 7.53612 27.5068 8.39965 28.5057 8.39965C29.1722 8.39965 29.58 8.12355 30.0381 7.69152L30.8542 8.54644C30.2545 9.21129 29.5883 9.62585 28.4642 9.62585C26.7488 9.62585 25.4749 8.25286 25.4749 6.5172Z" fill="black"/>
<path fill-rule="evenodd" clip-rule="evenodd" d="M25.4749 6.5172V6.5C25.4749 4.78155 26.7239 3.37415 28.5142 3.37415C29.6134 3.37415 30.2711 3.75402 30.8124 4.3065L29.9963 5.2824C29.5468 4.85924 29.0887 4.60008 28.5057 4.60008C27.5231 4.60008 26.8157 5.44667 26.8157 6.48252V6.5C26.8157 7.53612 27.5068 8.39965 28.5057 8.39965C29.1722 8.39965 29.58 8.12355 30.0381 7.69152L30.8542 8.54644C30.2545 9.21129 29.5883 9.62585 28.4642 9.62585C26.7488 9.62585 25.4749 8.25286 25.4749 6.5172Z" stroke="black" stroke-width="0.290504"/>
<path fill-rule="evenodd" clip-rule="evenodd" d="M34.4136 9.41857H35.6958V3.37415H34.4136V9.41857Z" fill="black"/>
<path fill-rule="evenodd" clip-rule="evenodd" d="M34.4136 9.41857H35.6958V3.37415H34.4136V9.41857Z" stroke="black" stroke-width="0.290504"/>
<path fill-rule="evenodd" clip-rule="evenodd" d="M41.9111 6.30993C42.5357 6.30993 42.8937 5.96473 42.8937 5.455V5.43779C42.8937 4.86811 42.5108 4.57427 41.886 4.57427H40.6121V6.30993H41.9111ZM39.3298 3.37415H41.9944C42.7355 3.37415 43.31 3.59003 43.6932 3.98711C44.0178 4.32397 44.1927 4.79902 44.1927 5.3687V5.38591C44.1927 6.36181 43.6849 6.97505 42.9434 7.25975L44.3677 9.41857H42.8685L41.6197 7.48424H40.6121V9.41857H39.3298V3.37415Z" fill="black"/>
<path fill-rule="evenodd" clip-rule="evenodd" d="M41.9111 6.30993C42.5357 6.30993 42.8937 5.96473 42.8937 5.455V5.43779C42.8937 4.86811 42.5108 4.57427 41.886 4.57427H40.6121V6.30993H41.9111ZM39.3298 3.37415H41.9944C42.7355 3.37415 43.31 3.59003 43.6932 3.98711C44.0178 4.32397 44.1927 4.79902 44.1927 5.3687V5.38591C44.1927 6.36181 43.6849 6.97505 42.9434 7.25975L44.3677 9.41857H42.8685L41.6197 7.48424H40.6121V9.41857H39.3298V3.37415Z" stroke="black" stroke-width="0.290504"/>
<path fill-rule="evenodd" clip-rule="evenodd" d="M51.6685 6.93176L50.8941 4.97162L50.1195 6.93176H51.6685ZM50.3196 3.37415H51.5018L53.9999 9.46186H52.6593L52.1266 8.10607H49.6617L49.1287 9.46186H47.8213L50.3196 3.37415Z" fill="black"/>
<path fill-rule="evenodd" clip-rule="evenodd" d="M51.6685 6.93176L50.8941 4.97162L50.1195 6.93176H51.6685ZM50.3196 3.37415H51.5018L53.9999 9.46186H52.6593L52.1266 8.10607H49.6617L49.1287 9.46186H47.8213L50.3196 3.37415Z" stroke="black" stroke-width="0.290504"/>
</g>
<defs>
<clipPath id="clip0_15_23">
<rect width="54" height="13" fill="white"/>
</clipPath>
</defs>
</svg>
