<svg width="54" height="13" viewBox="0 0 54 13" fill="none" xmlns="http://www.w3.org/2000/svg">
<path d="M16.9379 6.67278C16.6099 6.39654 16.161 6.25842 15.574 6.25842H14.6244H14.1755H13.623V11.3516H14.6244V9.88407H15.3323C15.6776 9.88407 15.9883 9.83227 16.2473 9.72868C16.5063 9.62509 16.7135 9.46971 16.8861 9.27979C17.0588 9.08988 17.1796 8.8827 17.266 8.64099C17.3523 8.39928 17.3868 8.14031 17.3868 7.88133C17.4041 7.34612 17.2487 6.94902 16.9379 6.67278ZM16.2819 8.46834C16.2128 8.64099 16.0919 8.77911 15.9366 8.89996C15.7812 9.00355 15.574 9.05535 15.315 9.05535H14.6244V7.12167H15.5567C15.7984 7.12167 16.0056 7.17347 16.161 7.29432C16.3164 7.41518 16.4027 7.60509 16.4027 7.88133C16.4027 8.10578 16.3682 8.29569 16.2819 8.46834Z" fill="black"/>
<path d="M21.4094 10.3156C21.4094 10.1602 21.4094 10.0394 21.4094 9.93578V9.038C21.4094 8.6927 21.3576 8.41646 21.2713 8.20928C21.185 7.98484 21.0468 7.82945 20.8914 7.7086C20.7188 7.58774 20.5289 7.50142 20.3044 7.46689C20.08 7.41509 19.8383 7.39783 19.5793 7.39783C19.3721 7.39783 19.1477 7.41509 18.9405 7.44962C18.7333 7.48415 18.5434 7.51868 18.3708 7.58774V8.38193H18.4398C18.5607 8.33014 18.6988 8.27834 18.8887 8.24381C19.0786 8.20928 19.2685 8.17475 19.4585 8.17475C19.6829 8.17475 19.8555 8.19202 20.0109 8.24381C20.1491 8.27834 20.2699 8.36467 20.339 8.48552C20.408 8.60638 20.4598 8.79629 20.4598 9.038V9.10706C20.3908 9.08979 20.3217 9.07253 20.2526 9.05526C20.0973 9.02073 19.9246 9.00347 19.7174 9.00347C19.3894 9.00347 19.0959 9.05526 18.8369 9.14159C18.5952 9.22791 18.388 9.36603 18.2499 9.53868C18.1118 9.71133 18.0427 9.95304 18.0427 10.2293C18.0427 10.6609 18.1981 10.9717 18.4916 11.1789C18.7851 11.3688 19.234 11.4724 19.821 11.4724C19.9937 11.4724 20.1836 11.4551 20.3735 11.4378C20.5634 11.4206 20.7533 11.386 20.9432 11.3342C21.1332 11.2824 21.3058 11.2307 21.4612 11.1789L21.4785 11.1271C21.4612 11.0407 21.4439 10.9371 21.4439 10.7818C21.4094 10.6091 21.4094 10.471 21.4094 10.3156ZM20.2699 10.7127C20.1145 10.7472 19.9591 10.7472 19.8038 10.7472C19.5275 10.7472 19.3203 10.7127 19.1822 10.6264C19.0441 10.5401 18.9578 10.4019 18.9578 10.212C18.9578 10.0048 19.0268 9.86672 19.1822 9.78039C19.3376 9.69407 19.562 9.65954 19.8728 9.65954C20.0109 9.65954 20.1491 9.6768 20.3044 9.69407C20.3562 9.71133 20.408 9.71133 20.4598 9.7286V10.0048C20.4598 10.1257 20.4598 10.212 20.4598 10.2983C20.4598 10.3674 20.4771 10.4365 20.4771 10.5055C20.4771 10.5573 20.4944 10.6091 20.5116 10.6609C20.408 10.6782 20.339 10.6954 20.2699 10.7127Z" fill="black"/>
<path d="M23.9819 10.1946L23.0842 7.48401H22.031V7.57033L23.4985 11.4377L22.877 12.9225V12.9915H23.8611L25.9674 7.57033V7.48401H24.9661L23.9819 10.1946Z" fill="black"/>
<path d="M32.0273 7.72586C31.8547 7.60501 31.682 7.51868 31.4748 7.46689C31.2677 7.41509 31.0432 7.39783 30.8188 7.39783C30.5771 7.39783 30.3526 7.43236 30.1109 7.48415C29.9037 7.53595 29.7138 7.58774 29.5412 7.67407C29.4031 7.58774 29.2477 7.51868 29.075 7.48415C28.8678 7.43236 28.6607 7.39783 28.4362 7.39783C28.2463 7.39783 28.0391 7.41509 27.8319 7.44962C27.6248 7.48415 27.4176 7.51868 27.2277 7.57048C27.0378 7.62227 26.8651 7.67407 26.727 7.72586L26.7097 7.77766C26.727 7.86398 26.7442 7.98484 26.7442 8.12296C26.7615 8.26108 26.7615 8.41646 26.7615 8.55458C26.7615 8.6927 26.7615 8.81355 26.7615 8.91714V11.3342H27.7456V8.77903C27.7456 8.64091 27.7456 8.50278 27.7283 8.38193C27.7283 8.3474 27.7111 8.31287 27.7111 8.29561C27.7629 8.27834 27.8319 8.26108 27.901 8.24381C28.0391 8.20928 28.1945 8.19202 28.3326 8.19202C28.5053 8.19202 28.6434 8.22655 28.7815 8.27834C28.9196 8.33014 29.0232 8.43373 29.0923 8.57185C29.1613 8.70997 29.2131 8.89988 29.2131 9.15885V11.3515H30.1972V9.12432C30.1972 8.79629 30.1454 8.52005 30.0591 8.31287C30.1454 8.27834 30.2318 8.26108 30.3181 8.24381C30.4389 8.20928 30.5598 8.20928 30.6807 8.20928C30.8706 8.20928 31.026 8.24381 31.1641 8.29561C31.3022 8.3474 31.4058 8.45099 31.4748 8.58911C31.5439 8.72723 31.5784 8.91714 31.5784 9.17612V11.3688H32.5625V9.12432C32.5625 8.76176 32.5107 8.46826 32.4244 8.26108C32.3208 8.03663 32.2 7.86398 32.0273 7.72586Z" fill="black"/>
<path d="M36.5339 7.67407C36.2576 7.50142 35.9123 7.39783 35.4807 7.39783C35.1009 7.39783 34.7556 7.48415 34.4793 7.63954C34.2031 7.79492 33.9786 8.03663 33.8233 8.33014C33.6679 8.62364 33.5815 8.9862 33.5815 9.40056C33.5815 9.74586 33.6333 10.0566 33.7369 10.2983C33.8405 10.5573 33.9959 10.7645 34.1858 10.9199C34.3757 11.0753 34.6174 11.1961 34.8937 11.2824C35.1699 11.3688 35.4807 11.4033 35.8433 11.4033C36.1022 11.4033 36.3267 11.386 36.5166 11.3515C36.7065 11.317 36.8792 11.2652 37 11.2134V10.4192H36.9309C36.8274 10.471 36.6892 10.5228 36.5166 10.5746C36.3439 10.6091 36.1368 10.6436 35.9123 10.6436C35.6533 10.6436 35.4289 10.6091 35.2217 10.5401C35.0318 10.471 34.8764 10.3501 34.7556 10.1948C34.6692 10.0739 34.6174 9.91851 34.6002 9.7286H37.259V9.48689C37.2762 9.07253 37.2245 8.72723 37.1036 8.41646C37 8.08843 36.8101 7.84672 36.5339 7.67407ZM36.2921 9.07253H34.6002C34.6174 8.89988 34.652 8.74449 34.7038 8.62364C34.7901 8.45099 34.8937 8.33014 35.0145 8.26108C35.1527 8.19202 35.308 8.14022 35.4807 8.14022C35.7569 8.14022 35.9641 8.20928 36.085 8.36467C36.2231 8.52005 36.2921 8.72723 36.2921 9.02073V9.07253Z" fill="black"/>
<path d="M41.2817 7.74313C41.109 7.62227 40.9019 7.53595 40.6947 7.48415C40.4702 7.43236 40.2458 7.39783 40.0041 7.39783C39.8142 7.39783 39.607 7.41509 39.3998 7.44962C39.1926 7.48415 38.9855 7.51868 38.7955 7.57048C38.6056 7.62227 38.433 7.67407 38.2949 7.72586L38.2776 7.77766C38.2949 7.86398 38.3121 7.98484 38.3121 8.12296C38.3294 8.26108 38.3294 8.41646 38.3294 8.55458C38.3294 8.6927 38.3294 8.81355 38.3294 8.91714V11.3342H39.3135V8.77903C39.3135 8.64091 39.3135 8.50278 39.2962 8.38193C39.2962 8.3474 39.279 8.31287 39.279 8.29561C39.3308 8.27834 39.3998 8.26108 39.4689 8.24381C39.607 8.20928 39.7624 8.19202 39.9005 8.19202C40.0904 8.19202 40.2631 8.22655 40.4012 8.27834C40.5393 8.33014 40.6429 8.43373 40.7292 8.57185C40.7983 8.70997 40.8501 8.89988 40.8501 9.15885V11.3515H41.8342V9.12432C41.8342 8.77903 41.7824 8.48552 41.6788 8.26108C41.5925 8.03663 41.4716 7.86398 41.2817 7.74313Z" fill="black"/>
<path d="M45.1314 10.5746C45.0451 10.5919 44.9587 10.6091 44.8724 10.6091C44.6307 10.6091 44.4581 10.5573 44.3545 10.4537C44.2509 10.3501 44.1818 10.1775 44.1818 9.93578V8.27835H45.235V7.48416H44.1818V6.48279H43.1977V7.48416H42.5762V8.27835H43.1977V10.0048C43.1977 10.3329 43.2495 10.5919 43.3704 10.799C43.4912 11.0062 43.6639 11.1443 43.9056 11.2479C44.1473 11.3515 44.4235 11.4033 44.7688 11.4033C44.9069 11.4033 45.0451 11.386 45.1487 11.3688C45.2695 11.3515 45.3558 11.317 45.4422 11.2825V10.4883H45.3731C45.304 10.5401 45.2177 10.5573 45.1314 10.5746Z" fill="black"/>
<path d="M48.6191 9.26229C48.4464 9.17596 48.2392 9.12417 48.0148 9.08964L47.6868 9.03784C47.4796 9.00331 47.3069 8.95152 47.2033 8.89972C47.0998 8.84793 47.048 8.7616 47.048 8.64075C47.048 8.48536 47.117 8.36451 47.2724 8.31271C47.4278 8.24365 47.635 8.20912 47.8939 8.20912C48.0666 8.20912 48.2392 8.22639 48.4119 8.24365C48.5845 8.27818 48.7572 8.32998 48.9298 8.39904H48.9816V7.58758C48.8263 7.53579 48.6536 7.50126 48.481 7.48399C48.3083 7.44946 48.1184 7.44946 47.9285 7.44946C47.4969 7.44946 47.1343 7.50126 46.8753 7.62211C46.6163 7.7257 46.4092 7.88109 46.2883 8.071C46.1674 8.26092 46.0984 8.4681 46.0984 8.69254C46.0984 9.02058 46.202 9.26228 46.4092 9.41767C46.6163 9.57305 46.9098 9.69391 47.2724 9.76297L47.6004 9.81476C47.8249 9.84929 47.9975 9.90109 48.1011 9.95288C48.2047 10.0047 48.2565 10.091 48.2565 10.2291C48.2565 10.3327 48.222 10.419 48.1702 10.4708C48.1184 10.5399 48.0493 10.5744 47.963 10.5917C47.8767 10.609 47.7904 10.6262 47.704 10.6435C47.6177 10.6435 47.5141 10.6435 47.4451 10.6435C47.2206 10.6435 46.9789 10.6262 46.7545 10.5572C46.53 10.5054 46.3228 10.4363 46.1674 10.3672H46.1157V11.2132C46.2883 11.265 46.4955 11.3168 46.7199 11.3513C46.9444 11.3859 47.1688 11.4031 47.3933 11.4031C48.0148 11.4031 48.4637 11.2996 48.7745 11.0924C49.0852 10.8852 49.2406 10.5744 49.2406 10.1601C49.2406 9.93562 49.1888 9.7457 49.0852 9.59032C48.9471 9.46946 48.809 9.34861 48.6191 9.26229Z" fill="black"/>
<path d="M18.716 5.18778C19.1131 5.39496 19.6138 5.49855 20.2181 5.49855C20.4598 5.49855 20.667 5.48129 20.8569 5.44676C21.0468 5.41223 21.2022 5.36043 21.3403 5.29137V4.39359H21.2713C21.1504 4.46265 20.995 4.51445 20.8224 4.56624C20.6497 4.60077 20.4598 4.61804 20.2699 4.61804C19.8901 4.61804 19.5793 4.54898 19.3203 4.41086C19.0613 4.27274 18.8714 4.08282 18.7333 3.82385C18.5952 3.56487 18.5434 3.23684 18.5434 2.85701C18.5434 2.47718 18.6125 2.16641 18.7333 1.90744C18.8714 1.64846 19.0613 1.44128 19.3203 1.30316C19.5793 1.16504 19.8901 1.09598 20.2699 1.09598C20.4598 1.09598 20.6497 1.11325 20.8224 1.16504C20.995 1.19957 21.1504 1.25137 21.2713 1.32043H21.3403V0.45718C21.2195 0.38812 21.0468 0.35359 20.8569 0.301795C20.667 0.267265 20.4598 0.25 20.2181 0.25C19.6311 0.25 19.1304 0.35359 18.716 0.578034C18.319 0.802479 18.0082 1.09598 17.801 1.49308C17.5938 1.89017 17.4902 2.33906 17.4902 2.87428C17.4902 3.40949 17.5938 3.89291 17.801 4.29C18.0254 4.6871 18.319 4.9806 18.716 5.18778Z" fill="black"/>
<path d="M22.6695 5.22233C22.963 5.41224 23.4119 5.51583 23.9989 5.51583C24.1715 5.51583 24.3615 5.49857 24.5514 5.4813C24.7413 5.46404 24.9312 5.42951 25.1211 5.37771C25.311 5.32592 25.4837 5.27412 25.6391 5.22233L25.6563 5.17053C25.6391 5.08421 25.6218 4.98062 25.6218 4.82523C25.6045 4.68712 25.6045 4.53173 25.6045 4.39361C25.6045 4.23823 25.6045 4.11737 25.6045 4.01378V3.116C25.6045 2.7707 25.5527 2.49446 25.4664 2.28728C25.3801 2.06284 25.242 1.90745 25.0866 1.7866C24.9139 1.66574 24.724 1.57942 24.4996 1.54489C24.2751 1.49309 24.0334 1.47583 23.7745 1.47583C23.5673 1.47583 23.3428 1.49309 23.1356 1.52762C22.9285 1.56215 22.7386 1.59668 22.5659 1.66574V2.45993H22.635C22.7558 2.40814 22.8939 2.35634 23.0839 2.32181C23.2738 2.28728 23.4637 2.25275 23.6536 2.25275C23.878 2.25275 24.0507 2.27002 24.2061 2.32181C24.3442 2.35634 24.4651 2.44267 24.5341 2.56352C24.6032 2.68438 24.655 2.87429 24.655 3.116V3.18506C24.5859 3.1678 24.5168 3.15053 24.4478 3.13327C24.2924 3.09874 24.1198 3.08147 23.9126 3.08147C23.5845 3.08147 23.291 3.13327 23.0321 3.21959C22.7904 3.30592 22.5832 3.44404 22.4451 3.61669C22.3069 3.78934 22.2379 4.03105 22.2379 4.30729C22.2206 4.72165 22.376 5.03241 22.6695 5.22233ZM23.3601 3.84113C23.5155 3.75481 23.7399 3.72028 24.0507 3.72028C24.1888 3.72028 24.3269 3.73754 24.4823 3.75481C24.5341 3.77207 24.5859 3.77207 24.6377 3.78934V4.06558C24.6377 4.18643 24.6377 4.27276 24.6377 4.35908C24.6377 4.42814 24.655 4.4972 24.655 4.56626C24.655 4.61806 24.6722 4.66985 24.6895 4.72165C24.6204 4.73891 24.5514 4.77344 24.4823 4.7907C24.3269 4.82523 24.1715 4.82523 24.0162 4.82523C23.7399 4.82523 23.5327 4.7907 23.3946 4.70438C23.2565 4.61806 23.1702 4.47994 23.1702 4.29002C23.1529 4.06558 23.222 3.92746 23.3601 3.84113Z" fill="black"/>
<path d="M28.5053 4.65264C28.419 4.6699 28.3327 4.68717 28.2463 4.70443C28.16 4.70443 28.0564 4.70443 27.9874 4.70443C27.7629 4.70443 27.5212 4.6699 27.2968 4.61811C27.0723 4.56631 26.8651 4.49725 26.7098 4.42819H26.658V5.25691C26.8306 5.30871 27.0378 5.3605 27.2622 5.39503C27.4867 5.42956 27.7111 5.44683 27.9356 5.44683C28.5571 5.44683 29.006 5.34324 29.3168 5.13606C29.6275 4.92888 29.7829 4.61811 29.7829 4.20375C29.7829 3.9793 29.7311 3.78939 29.6275 3.634C29.5239 3.47862 29.3686 3.35777 29.1959 3.27144C29.0233 3.18512 28.8161 3.13332 28.5916 3.09879L28.2636 3.047C28.0564 3.01247 27.8838 2.96067 27.7802 2.90888C27.6766 2.85708 27.6248 2.77076 27.6248 2.6499C27.6248 2.49452 27.6939 2.37366 27.8492 2.32187C28.0046 2.25281 28.2118 2.21828 28.4708 2.21828C28.6434 2.21828 28.8161 2.23554 28.9887 2.25281C29.1614 2.28734 29.334 2.33913 29.5067 2.40819H29.5585V1.59674C29.4031 1.54494 29.2304 1.51041 29.0578 1.49315C28.8851 1.45862 28.6952 1.45862 28.5053 1.45862C28.0737 1.45862 27.7111 1.51041 27.4521 1.63127C27.1932 1.73486 26.986 1.89024 26.8651 2.08016C26.7443 2.27007 26.6752 2.47725 26.6752 2.7017C26.6752 3.02973 26.7788 3.27144 26.986 3.42682C27.1932 3.58221 27.4867 3.70306 27.8492 3.77212L28.1773 3.82392C28.4017 3.85845 28.5744 3.91024 28.678 3.96204C28.7816 4.01383 28.8333 4.10016 28.8333 4.23828C28.8333 4.34187 28.7988 4.42819 28.747 4.47999C28.6607 4.58358 28.5916 4.63537 28.5053 4.65264Z" fill="black"/>
<path d="M34.2547 5.42964V3.20246C34.2547 2.87442 34.2201 2.59818 34.1338 2.39101C34.0475 2.16656 33.9266 1.99391 33.7885 1.85579C33.6504 1.71767 33.4605 1.61408 33.2705 1.56229C33.0806 1.49323 32.8562 1.47596 32.6317 1.47596C32.4073 1.47596 32.2001 1.49323 32.0275 1.54502C31.9411 1.56229 31.8548 1.59682 31.7685 1.63135V0.0429688H30.7326L30.7153 0.0947636C30.7326 0.181088 30.7499 0.284678 30.7499 0.440063C30.7671 0.578183 30.7671 0.733568 30.7671 0.871688C30.7671 1.00981 30.7671 1.13066 30.7671 1.23425V5.41238H31.7512V2.39101H31.7685C31.8548 2.37374 31.9584 2.33921 32.062 2.32195C32.1656 2.30468 32.2692 2.28742 32.3728 2.28742C32.5454 2.28742 32.7008 2.32195 32.8389 2.37374C32.977 2.42554 33.0806 2.52912 33.1497 2.66724C33.2188 2.80536 33.2705 2.99528 33.2705 3.25425V5.42964H34.2547Z" fill="black"/>
<path d="M37.2759 0.00830078C36.9306 0.00830078 36.6371 0.0600957 36.3954 0.180951C36.1537 0.301805 35.9638 0.474455 35.8429 0.6989C35.7221 0.923344 35.653 1.21685 35.653 1.56215H35.0315V2.35634H35.653V5.4295H36.6371V2.35634H37.6212V1.56215H36.6371C36.6371 1.28591 36.6889 1.09599 36.7925 0.975139C36.8961 0.83702 37.086 0.785225 37.3277 0.785225C37.4313 0.785225 37.5177 0.80249 37.5867 0.819755C37.6558 0.83702 37.7248 0.854285 37.7766 0.87155H37.8457V0.0946257C37.7766 0.0600957 37.6903 0.0428307 37.5867 0.0255657C37.5177 0.00830076 37.3968 0.00830078 37.2759 0.00830078Z" fill="black"/>
<path d="M38.3636 2.59807C38.3636 2.73619 38.3636 2.85704 38.3636 2.96063V5.42952H39.3477V2.85704C39.3477 2.64986 39.3304 2.49448 39.3131 2.37362C39.3649 2.35636 39.4167 2.35636 39.4858 2.33909C39.6239 2.32183 39.7793 2.30456 39.9347 2.30456C40.021 2.30456 40.1073 2.30456 40.1936 2.32183C40.28 2.32183 40.3663 2.33909 40.4354 2.35636H40.5044V1.54491C40.4008 1.52764 40.3145 1.52764 40.2109 1.51038C40.1073 1.51038 40.021 1.51038 39.9347 1.51038C39.7448 1.51038 39.5376 1.52764 39.3477 1.54491C39.1578 1.56217 38.9678 1.5967 38.7952 1.63123C38.6225 1.66576 38.4672 1.71756 38.329 1.75209L38.3118 1.80388C38.329 1.89021 38.3463 2.01106 38.3463 2.14918C38.3463 2.30456 38.3636 2.44268 38.3636 2.59807Z" fill="black"/>
<path d="M44.0092 5.44696C44.1991 5.41243 44.3718 5.36064 44.4926 5.30884V4.51466H44.4236C44.32 4.56645 44.1818 4.61825 44.0092 4.67004C43.8365 4.70457 43.6294 4.7391 43.4049 4.7391C43.1459 4.7391 42.9215 4.70457 42.7143 4.63551C42.5244 4.56645 42.369 4.4456 42.2482 4.29021C42.1618 4.16936 42.11 4.01397 42.0928 3.82406H44.7516V3.58235C44.7689 3.16799 44.7171 2.82269 44.5962 2.51192C44.4753 2.20115 44.2854 1.94218 44.0092 1.76953C43.733 1.59688 43.3877 1.49329 42.956 1.49329C42.5762 1.49329 42.2309 1.57961 41.9547 1.735C41.6784 1.89038 41.454 2.13209 41.2986 2.42559C41.1432 2.7191 41.0569 3.08166 41.0569 3.49602C41.0569 3.84132 41.1087 4.15209 41.2123 4.3938C41.3159 4.65278 41.4712 4.85996 41.6612 5.01534C41.8511 5.17072 42.0928 5.29158 42.369 5.3779C42.6453 5.46423 42.956 5.49876 43.3186 5.49876C43.5948 5.49876 43.8193 5.48149 44.0092 5.44696ZM42.5244 2.322C42.6625 2.25294 42.8179 2.20115 42.9906 2.20115C43.2668 2.20115 43.474 2.27021 43.5948 2.42559C43.733 2.58098 43.802 2.78816 43.802 3.08166V3.11619H42.11C42.1273 2.94354 42.1618 2.78816 42.2136 2.6673C42.2827 2.51192 42.3863 2.39106 42.5244 2.322Z" fill="black"/>
<path d="M49.1196 2.47725C48.9988 2.16648 48.8089 1.90751 48.5326 1.73486C48.2564 1.56221 47.9111 1.45862 47.4795 1.45862C47.0996 1.45862 46.7543 1.54494 46.4781 1.70033C46.2019 1.85571 45.9774 2.09742 45.822 2.39093C45.6666 2.68443 45.5803 3.047 45.5803 3.46136C45.5803 3.80665 45.6321 4.11742 45.7357 4.35913C45.8393 4.61811 45.9947 4.82529 46.1846 4.98067C46.3745 5.13606 46.6162 5.25691 46.8925 5.34324C47.1687 5.42956 47.4795 5.46409 47.842 5.46409C48.101 5.46409 48.3255 5.44683 48.5154 5.4123C48.7053 5.37777 48.8779 5.32597 48.9988 5.27418V4.47999H48.9297C48.8261 4.53178 48.688 4.58358 48.5154 4.63537C48.3427 4.6699 48.1355 4.70443 47.9111 4.70443C47.6521 4.70443 47.4277 4.6699 47.2205 4.60084C47.0306 4.53178 46.8752 4.41093 46.7543 4.25554C46.668 4.13469 46.6162 3.9793 46.599 3.78939H49.2578V3.54768C49.2923 3.15059 49.2405 2.78802 49.1196 2.47725ZM48.3082 3.13332H46.6162C46.6335 2.96067 46.668 2.80529 46.7198 2.68443C46.8061 2.51178 46.9097 2.39093 47.0306 2.32187C47.1687 2.25281 47.3241 2.20101 47.4967 2.20101C47.773 2.20101 47.9802 2.27007 48.101 2.42546C48.2391 2.58084 48.3082 2.78802 48.3082 3.08153V3.13332Z" fill="black"/>
<path d="M9.0996 0.0773236C8.08097 0.0773236 7.23499 0.906043 7.23499 1.92468H14.1237C15.1423 1.92468 15.9883 1.09596 15.9883 0.0600586H9.0996V0.0773236Z" fill="black"/>
<path d="M7.23499 1.92468C7.23499 0.906043 8.0637 0.0600586 9.0996 0.0600586V6.94878C9.0996 7.96742 8.27088 8.8134 7.23499 8.8134V1.92468Z" fill="black"/>
<path fill-rule="evenodd" clip-rule="evenodd" d="M9.68665 2.54639V4.411H11.8448C12.8634 4.411 13.7094 3.58229 13.7094 2.54639H9.68665Z" fill="black"/>
<path d="M4.73157 4.411C4.73157 3.39237 5.56029 2.54639 6.59618 2.54639V9.43511C6.59618 10.4537 5.76747 11.2997 4.73157 11.2997V4.411Z" fill="black"/>
</svg>
