<svg width="54" height="13" viewBox="0 0 54 13" fill="none" xmlns="http://www.w3.org/2000/svg">
<g clip-path="url(#clip0_76_147)">
<path fill-rule="evenodd" clip-rule="evenodd" d="M9.51433 0.01379C9.35247 0.0191457 9.05219 0.0385454 8.65147 0.0696087C8.5697 0.0759165 8.44616 0.0890083 8.37713 0.0986486C8.30798 0.108289 8.23991 0.111859 8.22586 0.106385C8.21182 0.101029 8.05853 0.119 7.88536 0.146493C7.71219 0.173867 7.52581 0.201598 7.4713 0.208144C7.41667 0.214571 7.32301 0.232304 7.26302 0.247419C7.20292 0.262653 7.11366 0.280268 7.06462 0.286695C6.93382 0.303952 6.68781 0.36465 6.68781 0.379765C6.6877 0.386906 6.66996 0.388097 6.6483 0.382503C6.62676 0.37679 6.5932 0.378932 6.57392 0.387263C6.55475 0.395595 6.5256 0.404997 6.50917 0.408091C6.45669 0.41797 6.24615 0.479025 6.08274 0.531749C5.9955 0.559837 5.91516 0.583879 5.90421 0.585069C5.88529 0.587092 5.85387 0.59828 5.76532 0.63446C5.67987 0.66957 5.64571 0.680282 5.63095 0.677187C5.6225 0.675283 5.58049 0.691826 5.53752 0.713725C5.49456 0.735624 5.44576 0.753477 5.42898 0.753477C5.41208 0.753477 5.39839 0.762403 5.39839 0.773353C5.39839 0.784302 5.38411 0.793228 5.36673 0.793228C5.34936 0.793228 5.31044 0.810724 5.28021 0.832266C5.24998 0.853808 5.21915 0.865233 5.21177 0.857854C5.17666 0.822625 5.21154 5.06187 5.24807 5.2761C5.26771 5.39071 5.28628 5.51854 5.28949 5.56019C5.29687 5.65731 5.37185 5.96532 5.42565 6.11921C5.4485 6.18467 5.46849 6.24489 5.46992 6.25311C5.47147 6.2612 5.47456 6.27012 5.47682 6.27286C5.47897 6.2756 5.48373 6.29119 5.4873 6.30761C5.49099 6.32392 5.50824 6.37081 5.52574 6.41164C5.54323 6.45258 5.55823 6.49269 5.55894 6.5009C5.55978 6.50911 5.56966 6.52708 5.58108 6.54065C5.59239 6.55434 5.5962 6.56552 5.58965 6.56552C5.58299 6.56552 5.59524 6.59694 5.61691 6.63551C5.63857 6.67407 5.6563 6.71786 5.6563 6.7331C5.6563 6.74821 5.66296 6.76357 5.67118 6.76714C5.67927 6.77083 5.72521 6.84962 5.77305 6.94233C5.8209 7.03504 5.87243 7.11824 5.88755 7.12704C5.90266 7.13597 5.9098 7.15156 5.9035 7.1618C5.89707 7.17203 5.90135 7.18036 5.9129 7.18036C5.92456 7.18036 5.93397 7.19524 5.93397 7.21321C5.93397 7.2313 5.95622 7.27534 5.98359 7.31104C6.01085 7.34687 6.03311 7.38221 6.03311 7.38971C6.03311 7.40161 6.09309 7.47957 6.18009 7.58061C6.1958 7.59882 6.21889 7.63298 6.23151 7.65643C6.24412 7.67999 6.2715 7.71629 6.29256 7.73736C6.31351 7.75831 6.33065 7.78437 6.33065 7.79532C6.33065 7.80627 6.3441 7.8152 6.3604 7.8152C6.37683 7.8152 6.38801 7.82317 6.38528 7.83281C6.38004 7.85126 6.50155 7.99931 6.63818 8.14106C6.68174 8.18629 6.74649 8.25687 6.78196 8.29769C6.81742 8.33851 6.84646 8.36648 6.84646 8.35981C6.84646 8.35315 6.90704 8.40861 6.98119 8.48312C7.14817 8.65093 7.41001 8.8867 7.47166 8.92467C7.49701 8.94038 7.52724 8.97382 7.53878 8.99905C7.55021 9.02428 7.56937 9.04499 7.58115 9.04499C7.60174 9.04499 7.63602 9.07332 7.79074 9.21852C7.82847 9.25398 7.86631 9.28302 7.87488 9.28302C7.88333 9.28302 7.91011 9.3098 7.93427 9.34253C7.95843 9.37526 7.98569 9.40204 7.99485 9.40204C8.0108 9.40204 8.11268 9.49071 8.31608 9.68161C8.3694 9.73172 8.41653 9.76921 8.42069 9.76504C8.42498 9.76088 8.45128 9.78456 8.47913 9.81776C8.5071 9.85097 8.5359 9.87811 8.54304 9.87811C8.5503 9.87811 8.58113 9.90262 8.61148 9.93262C8.71645 10.0363 8.80678 10.1161 8.81904 10.1161C8.82583 10.1161 8.85796 10.1434 8.89045 10.1766C8.92544 10.2123 8.95972 10.2313 8.97412 10.223C8.98757 10.2153 8.99185 10.2165 8.98352 10.2255C8.96781 10.2429 9.04243 10.3343 9.07243 10.3343C9.0923 10.3343 9.18549 10.4358 9.18644 10.4583C9.18775 10.49 9.14253 10.4707 9.08183 10.4138C9.04696 10.3811 9.00709 10.3543 8.99304 10.3543C8.97912 10.3542 8.96246 10.3407 8.95627 10.3244C8.94996 10.308 8.9327 10.2947 8.91794 10.2947C8.90319 10.2947 8.8751 10.2784 8.85558 10.2585C8.83606 10.2386 8.78881 10.201 8.75073 10.1749C8.71252 10.1489 8.66944 10.1138 8.65504 10.097C8.6329 10.0714 8.63111 10.0713 8.64397 10.0963C8.65242 10.1127 8.62707 10.0992 8.58779 10.0665C8.4339 9.93857 8.36666 9.88703 8.32155 9.86263C8.29573 9.84859 8.27466 9.828 8.27466 9.81681C8.27466 9.80563 8.26681 9.80122 8.25716 9.80717C8.24764 9.81312 8.2186 9.79765 8.19266 9.77278C8.16683 9.7479 8.09721 9.69339 8.03806 9.65162C7.9789 9.60984 7.92082 9.56783 7.90916 9.55843C7.89738 9.54891 7.84763 9.50963 7.79859 9.47107C7.74944 9.43251 7.6885 9.38336 7.66304 9.36181C7.63745 9.34027 7.61126 9.32266 7.6046 9.32266C7.59793 9.32266 7.56604 9.29814 7.53378 9.26815C7.50141 9.23816 7.48154 9.22697 7.48951 9.24339C7.49748 9.2597 7.48772 9.25529 7.46785 9.23339C7.4137 9.17412 7.26302 9.05916 7.26302 9.07725C7.26302 9.08581 7.23243 9.06058 7.19518 9.02107C7.15793 8.98156 7.12377 8.95275 7.11937 8.95716C7.11496 8.96156 7.08581 8.93859 7.0545 8.90598C7.0232 8.87337 6.98964 8.84659 6.97976 8.84659C6.96381 8.84659 6.91847 8.80958 6.80576 8.70449C6.78636 8.68628 6.76684 8.67497 6.76244 8.67925C6.75815 8.68366 6.70198 8.63867 6.63771 8.57928C6.57344 8.51989 6.51762 8.47455 6.51381 8.47835C6.51 8.48216 6.4868 8.46622 6.4624 8.44289C6.37873 8.36267 6.29137 8.29126 6.27697 8.29126C6.26257 8.29126 6.21651 8.24925 6.11868 8.14737C6.08988 8.11738 6.05655 8.09286 6.04453 8.09286C6.03263 8.09286 6.01168 8.07501 5.99811 8.05323C5.98443 8.03133 5.96324 8.01348 5.95098 8.01348C5.93861 8.01348 5.90826 7.99348 5.8835 7.96885C5.85875 7.94433 5.79519 7.88494 5.74235 7.83698C5.59786 7.7057 5.34186 7.45815 5.35067 7.45815C5.35495 7.45815 5.33031 7.43137 5.29604 7.39864C5.26188 7.36591 5.22701 7.33913 5.2188 7.33913C5.21058 7.33913 5.18023 7.2989 5.15143 7.24987C5.12275 7.20071 5.09169 7.16061 5.08252 7.16061C5.07336 7.16061 5.06086 7.1418 5.05491 7.11895C5.04896 7.09598 5.03515 7.08277 5.02432 7.08943C5.01337 7.0961 4.99826 7.08182 4.99052 7.05766C4.98291 7.0335 4.96589 7.00291 4.95267 6.9897C4.93958 6.97661 4.89864 6.91817 4.86175 6.85985C4.82485 6.80165 4.78998 6.7494 4.78415 6.74405C4.75832 6.71977 4.68941 6.60539 4.63466 6.49602C4.60193 6.43056 4.56849 6.37403 4.56016 6.37034C4.55195 6.36677 4.55028 6.35558 4.55635 6.34558C4.56254 6.33558 4.55814 6.32749 4.54659 6.32749C4.53505 6.32749 4.52564 6.3113 4.52564 6.29155C4.52564 6.27167 4.50196 6.20705 4.47316 6.14766C4.44424 6.08839 4.4177 6.02198 4.41413 6.0002C4.41056 5.9783 4.3902 5.90034 4.36878 5.82691C4.34748 5.75347 4.32546 5.65529 4.3201 5.60875C4.29868 5.42487 4.28785 5.34346 4.27821 5.29598C4.245 5.13233 4.22846 4.72113 4.22763 4.03916L4.22656 3.26341L4.28142 3.22342C4.31165 3.20141 4.33998 3.18641 4.34438 3.1901C4.3489 3.19379 4.35807 3.18915 4.36473 3.17986C4.37794 3.16142 4.54362 3.07334 4.76856 2.96504L4.84294 2.92922V2.3571C4.84294 1.98887 4.83592 1.78499 4.82319 1.78499C4.81224 1.78499 4.80331 1.79547 4.80331 1.80808C4.80331 1.82082 4.79772 1.8257 4.79093 1.81891C4.78415 1.81213 4.74428 1.82403 4.7025 1.84533C4.66061 1.86676 4.61265 1.88413 4.59586 1.88413C4.57896 1.88413 4.56528 1.89365 4.56528 1.9052C4.56528 1.91674 4.55635 1.92067 4.5454 1.91389C4.53457 1.90722 4.52564 1.91258 4.52564 1.92603C4.52564 1.93936 4.52017 1.94483 4.5135 1.93817C4.50684 1.9315 4.45328 1.95316 4.39449 1.98637C4.33569 2.01945 4.28761 2.04076 4.28761 2.0335C4.28761 2.02624 4.26083 2.03945 4.2281 2.06266C4.19537 2.08598 4.16859 2.09943 4.16859 2.09253C4.16859 2.07658 4.00483 2.16513 3.98543 2.19167C3.97734 2.2025 3.97067 2.20417 3.97055 2.19524C3.97031 2.18632 3.94568 2.19572 3.91569 2.21607C3.88569 2.23642 3.83654 2.26356 3.80655 2.27653C3.77655 2.28938 3.75204 2.30795 3.75204 2.31783C3.75204 2.3352 3.67813 2.36674 3.6479 2.36234C3.63969 2.36115 3.63302 2.36912 3.63302 2.38007C3.63302 2.39102 3.61957 2.39995 3.60327 2.39995C3.58684 2.39995 3.57339 2.40661 3.57339 2.41483C3.57339 2.42292 3.52472 2.45589 3.46545 2.4879C3.40606 2.51992 3.36285 2.55479 3.3694 2.56538C3.37595 2.57586 3.37154 2.57859 3.35964 2.57121C3.34774 2.56384 3.31549 2.58038 3.28799 2.60775C3.2605 2.63524 3.22896 2.65774 3.21789 2.65774C3.19099 2.65774 3.20694 4.70232 3.23574 4.9588C3.24741 5.06235 3.26657 5.20076 3.27847 5.26622C3.29037 5.33168 3.30346 5.42535 3.30763 5.4745C3.31168 5.52365 3.33798 5.6441 3.36595 5.74229C3.39392 5.84048 3.41903 5.92974 3.42177 5.94069C3.46069 6.09541 3.56542 6.34451 3.60291 6.37176C3.61398 6.37974 3.61553 6.38652 3.60624 6.38664C3.59708 6.38688 3.61172 6.42485 3.63897 6.47126C3.66611 6.51768 3.6892 6.56445 3.69027 6.5754C3.69134 6.58635 3.70657 6.61206 3.72419 6.63265C3.74168 6.65312 3.7668 6.69335 3.77977 6.72191C3.81869 6.80701 3.87986 6.90246 3.89581 6.90258C3.90402 6.9027 3.91069 6.91507 3.91069 6.93031C3.91069 6.94554 3.92402 6.96316 3.94044 6.96935C3.95686 6.97565 3.97019 6.99374 3.97019 7.00957C3.97019 7.02528 3.97722 7.04123 3.98579 7.0448C3.99424 7.04849 4.04387 7.10729 4.09599 7.17548C4.14812 7.24368 4.19763 7.29938 4.2062 7.29938C4.21477 7.29938 4.23191 7.32175 4.24429 7.34901C4.25667 7.37626 4.28047 7.39864 4.29701 7.39864C4.31368 7.39864 4.32724 7.40745 4.32724 7.41828C4.32724 7.45339 4.56135 7.70879 4.58682 7.70142C4.59563 7.69892 4.62169 7.72343 4.6449 7.75604C4.66799 7.78854 4.69465 7.8152 4.70405 7.8152C4.71345 7.8152 4.75427 7.84638 4.79474 7.88458C4.83521 7.92279 4.8752 7.95397 4.88365 7.95397C4.8921 7.95397 4.92875 7.98099 4.96517 8.01395C5.12632 8.15975 5.19178 8.21164 5.21487 8.21176C5.22855 8.21188 5.23974 8.22092 5.23974 8.23199C5.23974 8.24318 5.27092 8.2671 5.30913 8.28531C5.34733 8.30352 5.37852 8.33161 5.37852 8.34779C5.37852 8.36398 5.3847 8.37112 5.39208 8.36362C5.39958 8.35613 5.43529 8.37874 5.47147 8.41373C5.50765 8.44884 5.53728 8.47133 5.53728 8.46372C5.53728 8.4561 5.55359 8.4655 5.5737 8.48466C5.5937 8.50371 5.63083 8.53275 5.6563 8.54905C5.68165 8.56547 5.7189 8.59451 5.7389 8.61356C5.75889 8.6326 5.78258 8.64831 5.79138 8.64831C5.80019 8.64831 5.82483 8.6639 5.84589 8.68294C5.90719 8.73829 6.04179 8.83659 6.05631 8.83659C6.06369 8.83671 6.09047 8.85468 6.11582 8.8767C6.22103 8.96775 6.30518 9.02416 6.31755 9.01179C6.32481 9.00465 6.33065 9.00822 6.33065 9.01988C6.33065 9.03904 6.40444 9.09474 6.62807 9.2447C6.66984 9.27267 6.72947 9.3154 6.76041 9.33956C6.87324 9.42775 7.12413 9.59961 7.12413 9.58866C7.12413 9.58259 7.15162 9.60508 7.1853 9.63865C7.21898 9.67233 7.2535 9.69554 7.26207 9.69018C7.27076 9.68482 7.30563 9.70708 7.33967 9.73969C7.37359 9.77218 7.40822 9.79884 7.41655 9.79884C7.42476 9.79884 7.46285 9.82562 7.50105 9.85823C7.53914 9.89096 7.58068 9.91774 7.59317 9.91774C7.60555 9.91774 7.62114 9.93178 7.62769 9.9488C7.63423 9.96582 7.64697 9.97522 7.65589 9.96963C7.66494 9.96416 7.69624 9.98177 7.72552 10.0089C7.7548 10.036 7.77872 10.0531 7.77872 10.0468C7.77872 10.0403 7.80312 10.0578 7.83311 10.0856C7.86298 10.1133 7.89488 10.136 7.90392 10.136C7.91309 10.136 7.98462 10.1831 8.06281 10.2409C8.14112 10.2986 8.22979 10.3581 8.25978 10.3732C8.28978 10.3882 8.31429 10.4069 8.31429 10.4146C8.31429 10.4224 8.34107 10.4397 8.3738 10.4533C8.40653 10.4669 8.43331 10.4858 8.43331 10.4954C8.43331 10.505 8.44212 10.5128 8.45295 10.5128C8.47139 10.5128 8.52329 10.5505 8.58291 10.6071C8.59719 10.6208 8.61469 10.6318 8.62171 10.6318C8.62862 10.6318 8.66361 10.6542 8.69931 10.6815C8.73513 10.7087 8.7706 10.7311 8.77834 10.7311C8.78595 10.7311 8.81297 10.7534 8.8382 10.7806C8.86343 10.808 8.89295 10.8302 8.90366 10.8302C8.91425 10.8302 8.94901 10.8525 8.98067 10.8797C9.01232 10.9071 9.04529 10.9294 9.05386 10.9294C9.06243 10.9294 9.05993 10.9472 9.04827 10.9691C9.0366 10.9909 9.01613 11.0088 9.00292 11.0088C8.98959 11.0088 8.9408 11.0434 8.8945 11.0858C8.84808 11.1281 8.81023 11.1574 8.81023 11.1509C8.81023 11.1442 8.79631 11.1586 8.77929 11.1829C8.76239 11.2072 8.73561 11.2269 8.71978 11.2269C8.70407 11.2269 8.69122 11.2347 8.69122 11.2442C8.69122 11.2536 8.60636 11.3262 8.5027 11.4054C8.39903 11.4847 8.31429 11.5573 8.31429 11.5668C8.31429 11.5762 8.30465 11.584 8.29287 11.584C8.28109 11.584 8.23622 11.6197 8.1929 11.6634C8.14969 11.707 8.1078 11.7427 8.09971 11.7427C8.09173 11.7427 8.07031 11.7583 8.05222 11.7774C8.03401 11.7965 7.99533 11.83 7.96605 11.8518C7.87167 11.9221 7.75884 12.0349 7.75884 12.059C7.75884 12.0717 7.75123 12.0775 7.74194 12.0718C7.73266 12.066 7.70421 12.0834 7.67898 12.1103C7.65363 12.1372 7.64126 12.1595 7.65125 12.1599C7.66137 12.1602 7.65399 12.1695 7.63495 12.1807C7.61579 12.1918 7.60019 12.2144 7.60019 12.2308C7.60019 12.2472 7.59139 12.2553 7.58056 12.2487C7.56889 12.2414 7.56627 12.2503 7.57401 12.2706C7.58306 12.294 7.57972 12.3001 7.56342 12.29C7.55033 12.2819 7.54152 12.2827 7.54378 12.2916C7.54604 12.3007 7.53735 12.3438 7.52462 12.3873C7.51177 12.431 7.50117 12.585 7.50117 12.7295L7.50105 12.9924H9.81402H12.127L12.1197 12.68C12.1158 12.5081 12.1039 12.3541 12.0934 12.3378C12.0829 12.3214 12.074 12.2984 12.0738 12.2868C12.0731 12.26 11.9754 12.1357 11.8848 12.0465C11.7357 11.8995 11.7151 11.8815 11.6959 11.8815C11.6851 11.8815 11.6645 11.8628 11.6502 11.84C11.6358 11.8171 11.6197 11.8027 11.6144 11.8081C11.609 11.8134 11.5845 11.7987 11.56 11.7753C11.441 11.6622 11.3239 11.5616 11.2747 11.5303C11.2447 11.5114 11.2058 11.4799 11.1882 11.4605C11.1706 11.4411 11.1457 11.4253 11.1331 11.4253C11.1203 11.4253 11.1048 11.4119 11.0986 11.3956C11.0923 11.3791 11.0795 11.3658 11.0702 11.3658C11.0608 11.3658 11.0169 11.3302 10.9726 11.2868C10.8965 11.212 10.7938 11.1822 10.7938 11.2345C10.7938 11.2449 10.7878 11.2474 10.7806 11.2401C10.7733 11.2329 10.7532 11.2388 10.7359 11.2535C10.7187 11.2681 10.6126 11.3189 10.5001 11.3663C10.3878 11.4137 10.2913 11.4597 10.2858 11.4686C10.2802 11.4776 10.2584 11.4848 10.2372 11.4848C10.2161 11.4848 10.1987 11.4952 10.1987 11.5079C10.1987 11.5207 10.1927 11.5252 10.1855 11.5178C10.1781 11.5105 10.1536 11.5165 10.1308 11.5311C10.1082 11.5458 9.99588 11.6 9.88138 11.6518C9.55623 11.7988 9.50458 11.8226 9.34581 11.8988C9.26392 11.938 9.19251 11.9711 9.18704 11.9721C9.18168 11.9732 9.09813 12.0112 9.00161 12.0567C8.90509 12.1022 8.81809 12.1394 8.80821 12.1394C8.79845 12.1394 8.79036 12.1469 8.79036 12.156C8.79036 12.165 8.77691 12.1725 8.7606 12.1725C8.71538 12.1725 8.72514 12.1438 8.77548 12.1286C8.8 12.1212 8.8438 12.0929 8.87284 12.0659C8.90176 12.0387 8.93151 12.0183 8.93889 12.0203C8.94627 12.0223 8.97829 12.0009 9.01006 11.9726C9.04196 11.9442 9.07207 11.9233 9.07731 11.9261C9.08242 11.9289 9.1048 11.9155 9.12717 11.8964C9.14943 11.8773 9.17657 11.8618 9.18728 11.8618C9.19811 11.8618 9.20692 11.8543 9.20692 11.8451C9.20692 11.8359 9.22977 11.818 9.25762 11.8053C9.28547 11.7926 9.30296 11.7734 9.2963 11.7627C9.28939 11.7515 9.29737 11.7482 9.31498 11.755C9.33188 11.7614 9.34581 11.758 9.34581 11.7471C9.34581 11.7363 9.3614 11.7218 9.38044 11.7149C9.43007 11.697 9.49827 11.6553 9.54064 11.6169C9.56063 11.5988 9.58313 11.584 9.59051 11.584C9.59788 11.584 9.6299 11.5609 9.66168 11.5326C9.69345 11.5043 9.72392 11.4842 9.7294 11.4879C9.73487 11.4917 9.7601 11.4759 9.78557 11.4529C9.81092 11.43 9.86079 11.3946 9.89626 11.3743C9.93173 11.354 9.96065 11.3305 9.96065 11.3219C9.96065 11.3133 9.9741 11.3063 9.9904 11.3063C10.0068 11.3063 10.0202 11.2974 10.0202 11.2864C10.0202 11.2756 10.0297 11.2667 10.0413 11.2667C10.0644 11.2667 10.2045 11.1667 10.2152 11.1427C10.2189 11.1344 10.2341 11.1278 10.2493 11.1278C10.2644 11.1278 10.306 11.1024 10.3419 11.0716C10.3777 11.0407 10.436 10.9985 10.4715 10.9781C10.5069 10.9575 10.536 10.9332 10.536 10.924C10.536 10.9147 10.5432 10.9118 10.552 10.9172C10.561 10.9227 10.5932 10.9056 10.6239 10.8793C10.6545 10.853 10.6964 10.8261 10.7169 10.8195C10.7373 10.8131 10.7541 10.8013 10.7541 10.7935C10.7541 10.7857 10.7832 10.7625 10.8186 10.742C10.8541 10.7217 10.8965 10.6927 10.9128 10.6778C10.9292 10.6628 11.0229 10.5997 11.1211 10.5375C11.2192 10.4752 11.3168 10.4086 11.3378 10.3894C11.3589 10.3702 11.3923 10.3494 11.4122 10.3431C11.4322 10.3368 11.4484 10.3233 11.4484 10.3131C11.4484 10.303 11.4618 10.2947 11.4781 10.2947C11.4945 10.2947 11.5079 10.2878 11.5079 10.2794C11.5079 10.271 11.5481 10.2422 11.5971 10.2153C11.6463 10.1885 11.6864 10.1591 11.6864 10.1501C11.6864 10.141 11.694 10.1383 11.7033 10.144C11.7126 10.1497 11.7371 10.1391 11.7578 10.1202C11.8108 10.0722 12.1009 9.87811 12.1197 9.87811C12.1283 9.87811 12.1605 9.85168 12.1916 9.81931C12.2226 9.78694 12.2549 9.7648 12.2635 9.77016C12.2721 9.7754 12.2882 9.76397 12.2996 9.74469C12.3107 9.72529 12.3203 9.7166 12.3206 9.72517C12.3209 9.73374 12.3404 9.72291 12.3638 9.70101C12.3873 9.67923 12.414 9.66602 12.4233 9.67173C12.4326 9.67744 12.4402 9.66816 12.4402 9.65114C12.4402 9.63412 12.4469 9.6221 12.4551 9.62436C12.4794 9.63103 12.5861 9.56807 12.6269 9.52308C12.6476 9.50011 12.6724 9.48142 12.6822 9.48142C12.6918 9.48142 12.7105 9.47262 12.7237 9.46191C12.8424 9.36503 12.8767 9.34134 12.8771 9.35562C12.8775 9.36479 12.887 9.35646 12.8982 9.33718C12.9095 9.31778 12.9271 9.30718 12.9374 9.31349C12.9476 9.31992 12.9559 9.31766 12.9559 9.30873C12.9559 9.29969 12.9916 9.27029 13.0353 9.24339C13.0789 9.21638 13.1146 9.18745 13.1146 9.17912C13.1146 9.17079 13.1214 9.16615 13.1295 9.16877C13.1467 9.17412 13.3356 9.04797 13.3573 9.01655C13.3653 9.00488 13.372 9.00203 13.3721 9.01012C13.3725 9.02381 13.4221 8.9881 13.4823 8.93097C13.4967 8.91729 13.514 8.9061 13.5207 8.9061C13.5382 8.9061 13.649 8.82588 13.7191 8.76245C13.752 8.73245 13.7881 8.7077 13.7989 8.70746C13.8099 8.70722 13.8544 8.67592 13.8979 8.63796C13.9415 8.59999 13.9877 8.56893 14.0007 8.56893C14.0136 8.56893 14.0417 8.54667 14.0633 8.5193C14.0847 8.49204 14.1107 8.46979 14.1212 8.46979C14.1317 8.46979 14.1644 8.44741 14.1938 8.42016C14.2232 8.3929 14.2545 8.37053 14.2632 8.37053C14.2719 8.37053 14.3071 8.34375 14.3415 8.3109C14.3759 8.27805 14.404 8.25746 14.404 8.26508C14.404 8.27269 14.4209 8.26151 14.4417 8.24044C14.4624 8.21926 14.5093 8.17962 14.5459 8.15249C14.5824 8.12523 14.636 8.07834 14.6649 8.04835C14.6938 8.01824 14.727 7.99372 14.7388 7.99372C14.7505 7.99372 14.7747 7.97134 14.7926 7.94409C14.8104 7.91684 14.8342 7.89446 14.8453 7.89446C14.8565 7.89446 14.8849 7.87447 14.9088 7.84983C14.9324 7.82531 15.0049 7.75628 15.0697 7.69654C15.1345 7.63667 15.1852 7.58061 15.1824 7.57193C15.1795 7.56324 15.1906 7.55098 15.207 7.54479C15.2234 7.53848 15.2318 7.52503 15.2256 7.51504C15.2194 7.50504 15.2222 7.49921 15.2319 7.5023C15.2527 7.50873 15.3759 7.39661 15.3759 7.37126C15.3759 7.36151 15.3964 7.33473 15.4215 7.31164C15.4465 7.28855 15.5019 7.22499 15.5448 7.17048C15.5875 7.11597 15.6318 7.0648 15.6431 7.0567C15.6543 7.04873 15.6564 7.04206 15.6477 7.04183C15.6389 7.04171 15.659 7.01255 15.6922 6.97708C15.7254 6.94162 15.7527 6.9021 15.7527 6.88925C15.7528 6.87639 15.7648 6.8539 15.7795 6.83926C15.8199 6.79868 15.9206 6.63693 15.9158 6.62003C15.9134 6.61182 15.9219 6.60516 15.9347 6.60516C15.9474 6.60516 15.9519 6.5992 15.9447 6.59206C15.9374 6.5848 15.9543 6.5491 15.982 6.51268C16.0098 6.47626 16.0274 6.44651 16.021 6.44651C16.0147 6.44651 16.0368 6.39735 16.0702 6.33737C16.1036 6.27738 16.1259 6.22823 16.1199 6.22823C16.1138 6.22823 16.1227 6.20145 16.1396 6.16872C16.1825 6.08601 16.3081 5.67957 16.3173 5.59435C16.3215 5.55567 16.3397 5.45712 16.3578 5.37536C16.3759 5.29348 16.3919 5.17077 16.3934 5.10257C16.3949 5.03438 16.4022 4.97856 16.4094 4.97856C16.4168 4.97856 16.4242 4.46024 16.426 3.8266L16.4292 2.67452L16.3637 2.61692C16.3278 2.58514 16.2907 2.55907 16.2814 2.55896C16.272 2.55872 16.2373 2.53587 16.2041 2.5079C16.1688 2.47814 16.1311 2.4622 16.1126 2.46934C16.0955 2.47588 16.0875 2.47529 16.0949 2.46779C16.1103 2.45232 16.0357 2.38924 15.9437 2.34008C15.9097 2.32187 15.8327 2.28105 15.7727 2.24939C15.7126 2.21762 15.659 2.18655 15.6537 2.18025C15.6394 2.16394 15.567 2.13514 15.5495 2.13895C15.5413 2.14061 15.5347 2.13407 15.5347 2.12419C15.5347 2.11443 15.49 2.09027 15.4354 2.07063C15.3809 2.05111 15.3363 2.02636 15.3363 2.01576C15.3363 2.00517 15.3309 2.00184 15.3245 2.00839C15.3179 2.01481 15.2745 1.99886 15.2278 1.9728C15.1812 1.94674 15.1374 1.93103 15.1305 1.93781C15.1237 1.94471 15.1181 1.93936 15.1181 1.92603C15.1181 1.91258 15.1092 1.90722 15.0982 1.91389C15.0873 1.92067 15.0784 1.91674 15.0784 1.9052C15.0784 1.89365 15.0647 1.88413 15.048 1.88413C15.0312 1.88413 14.9749 1.86259 14.9227 1.83605C14.7758 1.76166 14.7795 1.74714 14.7855 2.3715L14.7908 2.92553L14.9792 3.01931C15.0829 3.07084 15.1851 3.12666 15.2064 3.14333C15.2277 3.15987 15.2556 3.17356 15.2682 3.17356C15.2809 3.17356 15.3135 3.19105 15.3409 3.21259C15.3682 3.23402 15.3961 3.24592 15.403 3.23902C15.4121 3.22997 15.4241 4.09367 15.4202 4.46286C15.4158 4.88239 15.335 5.52246 15.2513 5.8018C15.2283 5.8782 15.2086 5.94961 15.2072 5.96044C15.2 6.02102 15.147 6.16872 15.1326 6.16872C15.1233 6.16872 15.1212 6.17765 15.128 6.1886C15.1348 6.19955 15.1308 6.20847 15.1193 6.20847C15.1076 6.20847 15.0982 6.21954 15.0981 6.23323C15.0981 6.27929 14.881 6.68454 14.8565 6.68454C14.8476 6.68454 14.8403 6.69406 14.8403 6.70561C14.8403 6.7237 14.8021 6.78094 14.7114 6.89865C14.7005 6.91281 14.6694 6.94626 14.6422 6.97304C14.615 6.99981 14.5985 7.02171 14.6053 7.02171C14.6122 7.02171 14.5791 7.06087 14.5319 7.10883C14.4847 7.1568 14.4499 7.19988 14.4547 7.20464C14.4595 7.20952 14.4411 7.22535 14.4139 7.23987C14.3866 7.25451 14.3643 7.27343 14.3643 7.28188C14.3643 7.30212 13.9572 7.71594 13.9373 7.71594C13.9289 7.71594 13.8899 7.74914 13.8506 7.78961C13.8113 7.83007 13.7917 7.85542 13.807 7.84602C13.8261 7.83436 13.8303 7.83614 13.8207 7.85173C13.813 7.86435 13.7957 7.8747 13.7824 7.8747C13.7691 7.8747 13.7328 7.90362 13.7017 7.93909C13.6705 7.97456 13.6409 8.00039 13.6358 7.99634C13.6305 7.99241 13.5668 8.04252 13.494 8.10762C13.4213 8.17284 13.2726 8.29721 13.1637 8.38409C13.055 8.47098 12.9536 8.55702 12.9387 8.57535C12.9237 8.59368 12.8994 8.60856 12.8848 8.60856C12.8701 8.60856 12.8486 8.62641 12.8369 8.64831C12.8253 8.67009 12.8048 8.68794 12.7915 8.68794C12.778 8.68794 12.756 8.7058 12.7423 8.72758C12.7287 8.74947 12.7084 8.76733 12.6971 8.76733C12.6742 8.76733 12.434 8.96144 12.4237 8.98822C12.42 8.99762 12.4044 9.00536 12.3889 9.00536C12.3735 9.00536 12.3608 9.01429 12.3608 9.02512C12.3608 9.03607 12.3491 9.04499 12.3347 9.04499C12.3203 9.04499 12.2903 9.06511 12.2679 9.08962C12.2456 9.11414 12.1985 9.15663 12.1632 9.18388C12.1278 9.21114 12.087 9.24458 12.0726 9.25827C12.0581 9.27184 12.039 9.28302 12.03 9.28302C12.0211 9.28302 11.978 9.31397 11.9344 9.35182C11.8259 9.44584 11.8303 9.44239 11.6964 9.54081C11.6309 9.58902 11.5551 9.64888 11.528 9.67387C11.5007 9.69899 11.468 9.71946 11.4553 9.71946C11.4424 9.71946 11.4288 9.7266 11.4253 9.73541C11.4216 9.74433 11.365 9.79111 11.2996 9.83943C11.2341 9.88787 11.1734 9.93869 11.1647 9.95237C11.156 9.96606 11.1375 9.97725 11.1236 9.97725C11.1096 9.97725 11.0773 9.99962 11.0517 10.0269C11.0261 10.0541 10.9953 10.0765 10.9832 10.0765C10.9712 10.0765 10.9466 10.0921 10.9285 10.1111C10.8829 10.1595 10.8376 10.1955 10.8222 10.1955C10.8063 10.1955 10.6079 10.3583 10.5987 10.3789C10.5951 10.3871 10.5808 10.3938 10.5669 10.3938C10.5531 10.3938 10.5185 10.4153 10.4902 10.4416C10.4436 10.4847 10.4361 10.4863 10.4129 10.4576C10.3917 10.4315 10.3918 10.4287 10.4133 10.4416C10.4309 10.4522 10.443 10.4437 10.4503 10.4157C10.4563 10.3927 10.4729 10.374 10.4871 10.374C10.5013 10.374 10.5531 10.3338 10.6023 10.2848C10.6513 10.2356 10.7009 10.1955 10.7125 10.1955C10.7239 10.1955 10.7481 10.1731 10.7659 10.1459C10.7838 10.1186 10.8085 10.0961 10.8209 10.0959C10.8405 10.0954 10.9341 10.0166 11.1368 9.82991C11.1672 9.80194 11.2007 9.77897 11.2112 9.77897C11.2216 9.77897 11.2302 9.76528 11.2302 9.74874C11.2302 9.73207 11.2503 9.71053 11.2748 9.70089C11.3293 9.67947 11.3905 9.60925 11.3724 9.58902C11.365 9.5808 11.3709 9.58104 11.3853 9.58925C11.4015 9.59866 11.4316 9.58485 11.4645 9.55295C11.5199 9.49963 11.5508 9.47226 11.7248 9.32266C11.7821 9.27362 11.8563 9.20888 11.8901 9.17889C11.9238 9.14889 11.9581 9.12438 11.9663 9.12438C11.9745 9.12438 11.9863 9.10843 11.9925 9.08891C11.9987 9.06951 12.03 9.03809 12.0621 9.01905C12.0943 9.00012 12.1561 8.95133 12.1998 8.91062C12.2435 8.87004 12.3259 8.79649 12.3829 8.74745C12.44 8.6983 12.5052 8.63927 12.5279 8.61606C12.5506 8.59297 12.6079 8.54155 12.6553 8.50204C12.7027 8.46241 12.7349 8.43003 12.7271 8.43003C12.7191 8.43003 12.7358 8.41182 12.7642 8.38945C12.8322 8.33601 12.9957 8.17224 12.981 8.17224C12.9749 8.17224 13.0023 8.14059 13.0421 8.10179C13.082 8.06311 13.1146 8.028 13.1146 8.02371C13.1146 8.01955 13.1525 7.97432 13.199 7.92338C13.2453 7.87244 13.2832 7.82448 13.2832 7.81674C13.2832 7.80901 13.3056 7.7808 13.3329 7.75414C13.3601 7.7276 13.3913 7.69166 13.4022 7.6744C13.4251 7.63822 13.513 7.51408 13.6041 7.38935C13.6387 7.34187 13.6617 7.29771 13.6553 7.29129C13.6488 7.28486 13.6519 7.27962 13.6622 7.27962C13.6724 7.27962 13.7029 7.23713 13.7299 7.18536C13.757 7.13359 13.7948 7.0698 13.8138 7.04385C13.833 7.01779 13.8486 6.97982 13.8486 6.95959C13.8486 6.93923 13.8563 6.92257 13.8657 6.92257C13.8912 6.92257 13.9984 6.69692 13.9905 6.65967C13.9889 6.65157 13.9968 6.64479 14.0084 6.64479C14.0199 6.64479 14.0243 6.6367 14.0182 6.6267C14.0121 6.6167 14.016 6.60551 14.0272 6.60182C14.0383 6.59813 14.0509 6.57683 14.0552 6.55445C14.0595 6.53208 14.0785 6.47852 14.0975 6.43544C14.1166 6.39247 14.1343 6.34665 14.1372 6.3338C14.1399 6.32083 14.1651 6.24049 14.1932 6.15527C14.2671 5.93069 14.3449 5.62994 14.3335 5.61173C14.3282 5.60316 14.3335 5.55317 14.3454 5.50056C14.3906 5.30086 14.4225 4.95737 14.4103 4.80051C14.4016 4.68685 14.4046 4.64139 14.4209 4.64139C14.4378 4.64139 14.4436 4.15973 14.4436 2.747C14.4436 1.09589 14.4399 0.852737 14.4146 0.852737C14.3985 0.852737 14.3562 0.840359 14.3203 0.825363C14.1753 0.764426 13.9309 0.676235 13.8188 0.644339C13.7533 0.625772 13.6865 0.605658 13.67 0.599708C13.6536 0.593757 13.6224 0.585545 13.6006 0.581379C13.5787 0.577333 13.514 0.556386 13.4568 0.535082C13.3994 0.513659 13.3481 0.496044 13.3426 0.495925C13.3373 0.495806 13.3306 0.494735 13.3279 0.493545C13.3251 0.492355 13.3006 0.489856 13.2733 0.487951C13.2461 0.486047 13.1649 0.464386 13.093 0.439869C13.0213 0.41547 12.9364 0.391905 12.9046 0.387501C12.8729 0.383098 12.7888 0.364055 12.7179 0.345013C12.647 0.32597 12.5666 0.308713 12.5394 0.306808C12.5121 0.304785 12.4764 0.298358 12.46 0.292407C12.4107 0.274436 12.1191 0.215999 12.0237 0.20493C11.9745 0.199218 11.8184 0.173867 11.6765 0.148517C11.5346 0.123285 11.3829 0.102219 11.3393 0.101862C11.2957 0.101505 11.1394 0.0873421 10.9922 0.0704418C10.8448 0.0534224 10.5637 0.0306903 10.3673 0.0199788C10.0259 0.00141226 9.91613 0.000579145 9.51433 0.01379ZM10.6946 1.39509C10.8085 1.402 11.027 1.44722 11.1112 1.48138C11.1275 1.48793 11.1545 1.49614 11.171 1.49947C11.212 1.5078 11.4856 1.63943 11.5495 1.68157C11.6844 1.77035 11.723 1.80189 11.8154 1.89806C11.9486 2.03683 11.9839 2.07956 11.9839 2.10158C11.9839 2.11181 11.9965 2.1274 12.0119 2.13609C12.0272 2.14478 12.0706 2.21202 12.1082 2.28546C12.1457 2.35889 12.1808 2.41471 12.186 2.40947C12.1913 2.40423 12.196 2.41102 12.1966 2.4247C12.1986 2.4716 12.2222 2.57645 12.2433 2.63191C12.3091 2.80496 12.3174 6.45496 12.2524 6.63491C12.2446 6.65669 12.2279 6.70132 12.2154 6.73405C12.2029 6.76678 12.1915 6.80034 12.1899 6.80844C12.1885 6.81665 12.1851 6.82784 12.1823 6.83331C12.1796 6.83867 12.176 6.84985 12.1744 6.85807C12.1664 6.89817 12.0566 7.10074 12.0238 7.13597C12.0032 7.15811 11.9909 7.18084 11.9967 7.18643C12.0023 7.19214 11.9258 7.27891 11.8268 7.37936C11.7278 7.47981 11.6468 7.5561 11.6468 7.54896C11.6468 7.53694 11.6262 7.55134 11.5608 7.60918C11.547 7.62144 11.5146 7.6381 11.4887 7.64631C11.4628 7.65464 11.4238 7.67773 11.4023 7.69785C11.3807 7.71796 11.3555 7.72974 11.3462 7.72403C11.337 7.71832 11.3293 7.72308 11.3293 7.73462C11.3293 7.74617 11.3093 7.75592 11.2847 7.75628C11.2602 7.75664 11.2228 7.76997 11.2016 7.78604C11.1804 7.8021 11.1464 7.8152 11.1261 7.8152C11.1031 7.8152 11.0944 7.82388 11.1032 7.83805C11.1112 7.85114 11.1087 7.85566 11.0973 7.84852C11.0862 7.84174 11.0191 7.8528 10.948 7.87316C10.8771 7.89339 10.7531 7.91576 10.6725 7.92267C10.5919 7.92969 10.496 7.94076 10.4594 7.9473C10.4228 7.95385 10.3514 7.96123 10.3007 7.96361C10.1377 7.97135 7.47463 7.97396 7.46713 7.96635C7.45928 7.95861 7.66756 7.73105 7.82633 7.57407C7.87976 7.52122 7.91571 7.4779 7.90619 7.4779C7.89666 7.4779 7.9088 7.4641 7.93296 7.44708L7.97712 7.41613V4.67031V1.92436L7.89774 1.84974C7.85418 1.80868 7.81847 1.76773 7.81847 1.75881C7.81835 1.74024 7.68041 1.60647 7.66125 1.60647C7.65423 1.60647 7.6334 1.581 7.61507 1.54993C7.59662 1.51887 7.55235 1.4646 7.51653 1.42925L7.45142 1.36522L9.00852 1.37629C9.86496 1.38236 10.6237 1.39081 10.6946 1.39509ZM9.46482 4.64377V6.80832L9.89626 6.79939C10.3521 6.78999 10.4148 6.77844 10.5111 6.68609C10.5357 6.66252 10.5557 6.64943 10.5557 6.65705C10.5557 6.69608 10.6449 6.58171 10.696 6.47698L10.7546 6.35724L10.7538 4.60032C10.7528 2.62334 10.7703 2.83079 10.5896 2.65405C10.5361 2.60156 10.485 2.56324 10.4761 2.56871C10.4673 2.57419 10.4569 2.57193 10.4534 2.56372C10.4277 2.50576 10.2389 2.4791 9.85651 2.47921H9.46482V4.64377ZM40.1688 3.20153C40.1646 3.20545 39.8933 3.2139 39.566 3.22033C39.126 3.22902 38.9064 3.24199 38.7231 3.27032C38.5867 3.29138 38.4705 3.30578 38.4648 3.30233C38.4591 3.29876 38.3743 3.31316 38.2763 3.33435C38.1784 3.35553 38.0847 3.37565 38.0684 3.37922C38.0421 3.38481 38.038 3.76174 38.0336 6.60206L38.0286 9.8186H38.7924H39.5561V7.21262V4.60663L39.6206 4.59187C39.7263 4.5676 40.2572 4.56343 40.2855 4.58664C40.2995 4.59806 40.3161 4.60199 40.3227 4.59544C40.3554 4.56283 40.6272 4.75612 40.6272 4.81205C40.6272 4.82729 40.6362 4.83979 40.6471 4.83979C40.6579 4.83979 40.6653 4.84645 40.6633 4.85466C40.6613 4.86276 40.6702 4.90524 40.6831 4.9488C40.7003 5.00772 40.7064 5.64565 40.7065 7.42339L40.7066 9.8186H41.3814H42.0563L42.055 7.2657L42.0536 4.71279L42.2083 4.66555C42.6343 4.53534 43.082 4.63603 43.139 4.8749C43.1461 4.90465 43.1572 4.93797 43.1637 4.9488C43.1703 4.95975 43.1768 4.97535 43.1784 4.98356C43.1799 4.99177 43.1823 6.08291 43.1836 7.40852L43.1861 9.8186H43.9603H44.7344L44.7282 7.18536C44.7225 4.79456 44.7188 4.54117 44.6887 4.43311C44.6703 4.36765 44.6548 4.29183 44.654 4.26446C44.6532 4.23721 44.6354 4.17924 44.6143 4.13557C44.5932 4.09189 44.5756 4.04773 44.5753 4.0375C44.5744 4.01453 44.4714 3.8604 44.4506 3.85124C44.4424 3.84766 44.4358 3.83564 44.4358 3.82469C44.4358 3.80815 44.3332 3.70496 44.1827 3.57024C44.1291 3.52216 43.9709 3.42313 43.9547 3.42742C43.9466 3.42956 43.9398 3.42313 43.9398 3.41314C43.9398 3.40314 43.9132 3.38898 43.8806 3.38183C43.8479 3.37469 43.8162 3.36053 43.81 3.35053C43.8038 3.34042 43.7787 3.3322 43.7542 3.3322C43.7298 3.3322 43.7013 3.32494 43.691 3.31602C43.6707 3.29864 43.5179 3.25877 43.4043 3.24128C43.2594 3.21902 43.0729 3.2145 42.4026 3.217C42.3116 3.21735 42.0736 3.25306 41.9959 3.27793C41.9577 3.29019 41.9065 3.29781 41.8821 3.29495C41.8579 3.2921 41.8268 3.29662 41.8131 3.30507C41.7996 3.31352 41.7748 3.32209 41.7583 3.32423C41.7099 3.33042 41.3729 3.45348 41.3531 3.47217C41.3429 3.48181 41.3128 3.47336 41.2837 3.45277C41.2214 3.40885 41.0307 3.32554 40.9921 3.32554C40.9769 3.32554 40.9644 3.32007 40.9644 3.31328C40.9644 3.30662 40.9488 3.30007 40.9298 3.29888C40.9106 3.29781 40.8281 3.28186 40.7463 3.26365C40.6645 3.24532 40.5098 3.22664 40.4025 3.222C40.2953 3.21735 40.2006 3.20926 40.1921 3.20402C40.1835 3.19879 40.1731 3.1976 40.1688 3.20153ZM18.0403 3.33232C18.0438 3.35506 18.0697 3.40016 18.098 3.4323C18.1262 3.46455 18.1454 3.49085 18.1405 3.49085C18.1355 3.49085 18.1542 3.51537 18.1819 3.54524C18.2097 3.57512 18.2323 3.60678 18.2323 3.61558C18.2323 3.62427 18.2542 3.65498 18.2808 3.68378C18.3075 3.71258 18.3249 3.74341 18.3194 3.75233C18.3138 3.76126 18.3176 3.76864 18.3277 3.76864C18.3379 3.76864 18.3696 3.80411 18.3983 3.84755L18.4506 3.92645L18.4504 6.57992L18.4503 9.23339L18.3859 9.30219C18.3506 9.33991 18.3215 9.37586 18.3215 9.38193C18.3215 9.388 18.3005 9.41513 18.2747 9.44215C18.2488 9.46917 18.2151 9.52034 18.2 9.55581C18.1848 9.59128 18.1619 9.6202 18.1494 9.6202C18.1368 9.6202 18.132 9.62567 18.1386 9.63234C18.1453 9.639 18.1245 9.66661 18.0923 9.69363C17.9383 9.82324 17.8927 9.81872 19.3183 9.81788C20.7722 9.81693 21.1541 9.80241 21.3448 9.74052C21.4148 9.71779 21.4951 9.69506 21.5233 9.68994C21.5696 9.68161 21.7055 9.62353 21.783 9.57902C21.7993 9.56962 21.8643 9.53343 21.9275 9.49868C22.0781 9.41573 22.3094 9.21923 22.3059 9.17722C22.3043 9.15901 22.3123 9.14413 22.3234 9.14413C22.3462 9.14413 22.4375 9.04392 22.4375 9.01893C22.4376 9.01 22.459 8.9743 22.4852 8.93954C22.5441 8.86147 22.6354 8.64617 22.6466 8.55917C22.6511 8.52358 22.6662 8.46883 22.6802 8.43741C22.7634 8.24937 22.716 4.50249 22.6303 4.50249C22.6213 4.50249 22.619 4.49404 22.6254 4.48369C22.6415 4.45762 22.5025 4.14544 22.4747 4.14544C22.4674 4.14544 22.4418 4.1076 22.4177 4.06118C22.3707 3.97049 22.1103 3.70913 22.0671 3.70913C22.0526 3.70913 22.0406 3.70235 22.0402 3.69425C22.0395 3.67581 21.9474 3.60749 21.9155 3.60178C21.9026 3.59952 21.8609 3.57785 21.8227 3.55369C21.7844 3.52965 21.7309 3.50442 21.7036 3.49764C21.6764 3.49097 21.6451 3.47883 21.6343 3.47086C21.6099 3.45313 21.4667 3.40397 21.426 3.39945C21.4095 3.39755 21.3056 3.37731 21.195 3.35422C20.9482 3.30305 21.1585 3.30971 19.4671 3.29948L18.034 3.29079L18.0403 3.33232ZM23.5021 3.30578C23.4948 3.31304 23.4889 4.78135 23.4889 6.56874V9.8186H24.2526H25.0162V8.68616V7.55372L25.4973 7.56288C25.7619 7.568 25.9962 7.57704 26.018 7.58299C26.0398 7.58906 26.0621 7.59466 26.0676 7.59549C26.0959 7.59989 26.1848 7.69439 26.2141 7.75105C26.2441 7.80924 26.2473 7.91648 26.2465 8.81719L26.2454 9.8186H27.0299H27.8142L27.8076 8.79208C27.8039 8.22747 27.7958 7.74331 27.7895 7.71594C27.7831 7.68868 27.7681 7.62465 27.7562 7.57371C27.7322 7.47219 27.6616 7.33913 27.6315 7.33913C27.621 7.33913 27.6188 7.32878 27.6266 7.31628C27.6343 7.30366 27.6274 7.28355 27.6111 7.27165C27.5948 7.25963 27.5709 7.22987 27.5579 7.20536C27.545 7.18096 27.5278 7.16299 27.52 7.16537C27.5121 7.16775 27.4503 7.13192 27.3826 7.08562C27.3149 7.03945 27.2146 6.99125 27.1597 6.97851L27.06 6.95554L27.1638 6.88615C27.2209 6.84807 27.2748 6.80498 27.2835 6.79035C27.2923 6.77583 27.3091 6.7638 27.321 6.7638C27.345 6.7638 27.4363 6.67133 27.4363 6.64693C27.4363 6.63824 27.4542 6.61503 27.4759 6.59528C27.4977 6.57552 27.5156 6.54803 27.5156 6.53434C27.5156 6.52053 27.5253 6.50602 27.5371 6.50209C27.5569 6.49554 27.6161 6.3501 27.6486 6.22823C27.6902 6.07327 27.6724 4.35706 27.6274 4.16532C27.608 4.08284 27.5122 3.86778 27.4949 3.86778C27.4859 3.86778 27.4736 3.85195 27.4674 3.83255C27.4542 3.79077 27.2666 3.59011 27.2408 3.59011C27.231 3.59011 27.2114 3.57619 27.1972 3.55905C27.1667 3.52239 26.936 3.41159 26.8628 3.39862C26.8346 3.39362 26.7668 3.37707 26.7122 3.36172C26.6577 3.34649 26.5264 3.32459 26.4205 3.31328C26.2091 3.29055 23.5242 3.28365 23.5021 3.30578ZM29.8016 3.31447C29.7225 3.32364 29.602 3.34577 29.5338 3.36363C29.4658 3.38148 29.401 3.39814 29.3901 3.40076C29.3792 3.40338 29.3457 3.41575 29.3157 3.42837C29.2244 3.46669 29.1526 3.49371 29.1422 3.49371C29.1367 3.49371 29.1251 3.50644 29.1163 3.52204C29.1076 3.53763 29.0885 3.55036 29.0738 3.55036C29.0592 3.55036 29.0198 3.57595 28.9862 3.60725C28.9528 3.63855 28.9219 3.66069 28.9175 3.65641C28.9132 3.652 28.884 3.68223 28.8527 3.72341C28.8214 3.76459 28.7775 3.81624 28.7551 3.83802C28.718 3.87432 28.6775 3.9474 28.6674 3.99667C28.6651 4.00762 28.6497 4.03166 28.633 4.04999C28.6163 4.06844 28.6086 4.09296 28.6158 4.1045C28.6229 4.11617 28.6197 4.12569 28.6086 4.12569C28.5828 4.12569 28.5155 4.34563 28.5053 4.46286C28.492 4.61687 28.4969 8.57297 28.5105 8.6933C28.5245 8.81636 28.6181 9.10176 28.6553 9.13425C28.6676 9.1452 28.6891 9.18162 28.7028 9.2153C28.73 9.28207 28.9228 9.49452 28.9488 9.48619C28.9576 9.48333 28.9699 9.49452 28.9763 9.51094C28.9826 9.52737 28.9958 9.54093 29.0058 9.54093C29.0156 9.54093 29.0711 9.57235 29.129 9.6108C29.1869 9.64924 29.2544 9.68459 29.279 9.68923C29.3037 9.69399 29.3745 9.71696 29.4364 9.74017C29.6036 9.80301 29.8964 9.81729 31.0318 9.818L32.0388 9.8186L32.0335 9.19876L32.0283 8.5788L31.1009 8.57488C30.5908 8.57262 30.1623 8.56369 30.1484 8.555C30.1346 8.54631 30.0989 8.50942 30.0692 8.47324L30.0149 8.40718V7.78389V7.16061H30.9071H31.7991L31.8046 6.55065L31.8102 5.94069L30.9125 5.94533L30.0149 5.94997V5.3393V4.72862L30.0686 4.64591C30.149 4.52189 30.1445 4.52237 31.1387 4.52237H32.0382V3.90741V3.29257L30.9919 3.29507C30.4164 3.2965 29.8808 3.30519 29.8016 3.31447ZM32.7854 3.30578C32.7781 3.31304 32.7722 4.78135 32.7722 6.56874V9.8186H33.5458H34.3194V8.68794V7.55729H34.9638H35.6084L35.6136 8.68294L35.6187 9.80872L36.4078 9.81384L37.197 9.81907L37.1904 7.32449C37.1845 5.02474 37.1812 4.81979 37.1493 4.70149C37.1303 4.63079 37.1123 4.55748 37.1094 4.53832C37.1065 4.51916 37.0979 4.49738 37.0903 4.48988C37.0828 4.48226 37.0763 4.46191 37.0759 4.44465C37.0756 4.42739 37.0579 4.37753 37.0369 4.33397C37.0158 4.29029 36.9983 4.24339 36.998 4.22983C36.9976 4.21614 36.9883 4.20495 36.9774 4.20495C36.9665 4.20495 36.9594 4.19829 36.9615 4.19008C36.9697 4.15984 36.8344 3.96716 36.814 3.97989C36.8018 3.98739 36.7985 3.98358 36.8062 3.97108C36.8207 3.94764 36.621 3.72889 36.5853 3.72889C36.5737 3.72889 36.5612 3.72222 36.5576 3.71401C36.5396 3.67378 36.3534 3.55953 36.3179 3.56714C36.3097 3.56881 36.303 3.56214 36.303 3.55215C36.303 3.5312 36.0018 3.41171 35.9224 3.401C35.893 3.39707 35.832 3.38386 35.7865 3.37172C35.741 3.35946 35.6989 3.35446 35.6928 3.36053C35.6868 3.3666 35.672 3.36339 35.66 3.35351C35.5981 3.30197 32.835 3.25615 32.7854 3.30578ZM46.1118 3.4073C46.092 3.46967 46.059 3.57155 46.0384 3.63379C46.0177 3.69592 45.9975 3.76293 45.9933 3.78256C45.9892 3.8022 45.9492 3.92979 45.9044 4.06606C45.8597 4.20245 45.8186 4.33956 45.8131 4.37086C45.8075 4.40216 45.7901 4.4531 45.774 4.48393C45.758 4.51487 45.7413 4.56069 45.7365 4.5858C45.7319 4.61092 45.7267 4.63151 45.7251 4.63151C45.7234 4.63151 45.7191 4.6471 45.7154 4.66614C45.7094 4.69816 45.7354 4.70089 46.0443 4.70089H46.3797V7.25975V9.8186H47.1533H47.9269V6.55517V3.29174L47.0372 3.29293L46.1476 3.29412L46.1118 3.4073ZM49.0293 3.31733C49.0103 3.38398 48.9532 3.54513 48.9358 3.58131C48.9249 3.60368 48.9184 3.63046 48.9211 3.64081C48.9239 3.65105 48.9128 3.69068 48.8966 3.72889C48.8804 3.76709 48.8552 3.8385 48.8407 3.88765C48.8262 3.93669 48.7977 4.02381 48.7775 4.08106C48.7573 4.13842 48.7412 4.18758 48.7417 4.19019C48.7436 4.19912 48.7271 4.25339 48.6923 4.35372C48.6605 4.44525 48.6451 4.49976 48.6098 4.64638L48.5967 4.70089H48.9362H49.2758V7.25975V9.8186H50.0394H50.8031V6.55553V3.29257H49.9198C49.2302 3.29257 49.0349 3.29793 49.0293 3.31733ZM25.9188 4.47274C25.9897 4.51666 26.0296 4.56093 26.0711 4.64115L26.1272 4.74993L26.1222 5.39488L26.1171 6.03983L26.0596 6.14432C26.028 6.20169 25.9979 6.24454 25.9927 6.23942C25.9876 6.2343 25.9709 6.24275 25.9555 6.25822C25.898 6.31571 25.775 6.33416 25.3981 6.34225L25.0162 6.35034V5.37476V4.39931L25.4196 4.40633L25.8228 4.41323L25.9188 4.47274ZM35.3368 4.46738C35.394 4.49928 35.4307 4.51047 35.4317 4.49619C35.4327 4.48333 35.4384 4.48619 35.4446 4.50249C35.4507 4.51892 35.4799 4.56355 35.5093 4.60175C35.6058 4.72684 35.6087 4.75528 35.6087 5.57662V6.34725H34.9641H34.3194V5.37286V4.39835L34.7815 4.4068C35.2362 4.41514 35.2451 4.41609 35.3368 4.46738ZM20.6338 4.48286C20.6931 4.4938 20.7626 4.5069 20.7883 4.5119C20.8139 4.51677 20.8474 4.53118 20.8627 4.54391C20.8779 4.55653 20.8904 4.55962 20.8904 4.55081C20.8904 4.54189 20.9035 4.552 20.9194 4.57307C20.9355 4.59425 20.9488 4.60497 20.9492 4.59675C20.9503 4.5714 21.0226 4.65293 21.0969 4.76326L21.1678 4.86859L21.1629 6.55505C21.1584 8.16379 21.1564 8.24413 21.1212 8.29614C21.1008 8.32613 21.0898 8.35077 21.0965 8.35077C21.1159 8.35077 21.0075 8.45479 20.923 8.51739C20.8116 8.59999 20.7403 8.61308 20.3498 8.62284L19.9978 8.63177V6.54731V4.46286H20.2619C20.4072 4.46286 20.5745 4.47191 20.6338 4.48286Z" fill="black"/>
<path fill-rule="evenodd" clip-rule="evenodd" d="M4.30491 2.01661C4.28004 2.04684 4.28194 2.04744 4.32729 2.02387C4.39382 1.98924 4.39882 1.98364 4.36275 1.98364C4.34597 1.98364 4.31991 1.9984 4.30491 2.01661ZM12.1759 2.41508C12.1661 2.43186 12.1955 2.51922 12.2111 2.51922C12.2165 2.51922 12.213 2.49779 12.203 2.47161C12.1931 2.44543 12.1902 2.41865 12.1969 2.4121C12.2034 2.40556 12.2034 2.4002 12.1968 2.4002C12.1901 2.4002 12.1808 2.40686 12.1759 2.41508ZM39.2893 3.21082C39.2329 3.22296 40.0004 3.21856 40.1215 3.20606C40.1542 3.20273 39.9935 3.19963 39.7644 3.19916C39.5353 3.19868 39.3216 3.20392 39.2893 3.21082ZM40.1925 3.20082C40.197 3.20487 40.2499 3.2132 40.3099 3.21939C40.3803 3.22665 40.4014 3.22475 40.3694 3.21415C40.3202 3.19773 40.1767 3.1869 40.1925 3.20082ZM42.4027 3.21356C42.3771 3.22463 42.3984 3.22665 42.4622 3.21927C42.5167 3.21296 42.565 3.20463 42.5695 3.2007C42.5868 3.18595 42.4405 3.19713 42.4027 3.21356ZM42.6407 3.20606C42.7696 3.21939 43.2423 3.2226 43.2103 3.20987C43.1916 3.20249 43.0424 3.19713 42.8787 3.1982C42.7151 3.19916 42.608 3.20273 42.6407 3.20606ZM3.20508 3.87791C3.20508 4.10701 3.20794 4.19806 3.21139 4.08024C3.21496 3.96229 3.21496 3.77484 3.21139 3.66368C3.20794 3.5524 3.20496 3.6488 3.20508 3.87791ZM14.4101 4.75077C14.4102 4.81623 14.4139 4.84063 14.4183 4.80493C14.4229 4.76922 14.4227 4.71566 14.4182 4.68591C14.4137 4.65616 14.41 4.68531 14.4101 4.75077ZM16.4125 4.79041C16.4127 4.83409 16.4167 4.84956 16.4215 4.82492C16.4263 4.80017 16.426 4.76446 16.4211 4.74554C16.4161 4.72661 16.4122 4.74673 16.4125 4.79041ZM30.0398 5.94463C30.0589 5.94963 30.0902 5.94963 30.1092 5.94463C30.1283 5.93963 30.1127 5.93558 30.0745 5.93558C30.0363 5.93558 30.0207 5.93963 30.0398 5.94463ZM30.2387 5.94558C30.291 5.94963 30.3713 5.94963 30.4172 5.94546C30.4633 5.94129 30.4207 5.93796 30.3225 5.93796C30.2243 5.93808 30.1866 5.94153 30.2387 5.94558ZM30.6249 5.9457C30.6931 5.94951 30.8047 5.94951 30.8729 5.9457C30.9411 5.94177 30.8853 5.93868 30.7489 5.93868C30.6125 5.93868 30.5567 5.94177 30.6249 5.9457ZM31.1209 5.9457C31.1891 5.94951 31.3006 5.94951 31.3688 5.9457C31.437 5.94177 31.3813 5.93868 31.2449 5.93868C31.1085 5.93868 31.0527 5.94177 31.1209 5.9457ZM31.5377 5.94498C31.5623 5.94974 31.598 5.94963 31.617 5.94463C31.636 5.93963 31.6157 5.93582 31.5722 5.93594C31.5285 5.93618 31.513 5.94022 31.5377 5.94498ZM31.7652 5.94344C31.7967 5.95272 31.8002 6.00402 31.8053 6.55221L31.811 7.15086L31.8106 6.54614C31.8102 5.95617 31.8092 5.94129 31.7704 5.93737C31.7402 5.93427 31.7389 5.9357 31.7652 5.94344ZM27.3768 7.08242C27.4456 7.1292 27.4848 7.14277 27.4363 7.10313C27.4091 7.08076 27.3778 7.06243 27.3668 7.06243C27.356 7.06231 27.3604 7.07136 27.3768 7.08242Z" fill="black"/>
<path fill-rule="evenodd" clip-rule="evenodd" d="M4.30491 2.01661C4.28004 2.04684 4.28194 2.04744 4.32729 2.02387C4.39382 1.98924 4.39882 1.98364 4.36275 1.98364C4.34597 1.98364 4.31991 1.9984 4.30491 2.01661ZM12.1759 2.41508C12.1661 2.43186 12.1955 2.51922 12.2111 2.51922C12.2165 2.51922 12.213 2.49779 12.203 2.47161C12.1931 2.44543 12.1902 2.41865 12.1969 2.4121C12.2034 2.40556 12.2034 2.4002 12.1968 2.4002C12.1901 2.4002 12.1808 2.40686 12.1759 2.41508ZM39.2893 3.21082C39.2329 3.22296 40.0004 3.21856 40.1215 3.20606C40.1542 3.20273 39.9935 3.19963 39.7644 3.19916C39.5353 3.19868 39.3216 3.20392 39.2893 3.21082ZM40.1925 3.20082C40.197 3.20487 40.2499 3.2132 40.3099 3.21939C40.3803 3.22665 40.4014 3.22475 40.3694 3.21415C40.3202 3.19773 40.1767 3.1869 40.1925 3.20082ZM42.4027 3.21356C42.3771 3.22463 42.3984 3.22665 42.4622 3.21927C42.5167 3.21296 42.565 3.20463 42.5695 3.2007C42.5868 3.18595 42.4405 3.19713 42.4027 3.21356ZM42.6407 3.20606C42.7696 3.21939 43.2423 3.2226 43.2103 3.20987C43.1916 3.20249 43.0424 3.19713 42.8787 3.1982C42.7151 3.19916 42.608 3.20273 42.6407 3.20606ZM3.20508 3.87791C3.20508 4.10701 3.20794 4.19806 3.21139 4.08024C3.21496 3.96229 3.21496 3.77484 3.21139 3.66368C3.20794 3.5524 3.20496 3.6488 3.20508 3.87791ZM14.4101 4.75077C14.4102 4.81623 14.4139 4.84063 14.4183 4.80493C14.4229 4.76922 14.4227 4.71566 14.4182 4.68591C14.4137 4.65616 14.41 4.68531 14.4101 4.75077ZM16.4125 4.79041C16.4127 4.83409 16.4167 4.84956 16.4215 4.82492C16.4263 4.80017 16.426 4.76446 16.4211 4.74554C16.4161 4.72661 16.4122 4.74673 16.4125 4.79041ZM30.0398 5.94463C30.0589 5.94963 30.0902 5.94963 30.1092 5.94463C30.1283 5.93963 30.1127 5.93558 30.0745 5.93558C30.0363 5.93558 30.0207 5.93963 30.0398 5.94463ZM30.2387 5.94558C30.291 5.94963 30.3713 5.94963 30.4172 5.94546C30.4633 5.94129 30.4207 5.93796 30.3225 5.93796C30.2243 5.93808 30.1866 5.94153 30.2387 5.94558ZM30.6249 5.9457C30.6931 5.94951 30.8047 5.94951 30.8729 5.9457C30.9411 5.94177 30.8853 5.93868 30.7489 5.93868C30.6125 5.93868 30.5567 5.94177 30.6249 5.9457ZM31.1209 5.9457C31.1891 5.94951 31.3006 5.94951 31.3688 5.9457C31.437 5.94177 31.3813 5.93868 31.2449 5.93868C31.1085 5.93868 31.0527 5.94177 31.1209 5.9457ZM31.5377 5.94498C31.5623 5.94974 31.598 5.94963 31.617 5.94463C31.636 5.93963 31.6157 5.93582 31.5722 5.93594C31.5285 5.93618 31.513 5.94022 31.5377 5.94498ZM31.7652 5.94344C31.7967 5.95272 31.8002 6.00402 31.8053 6.55221L31.811 7.15086L31.8106 6.54614C31.8102 5.95617 31.8092 5.94129 31.7704 5.93737C31.7402 5.93427 31.7389 5.9357 31.7652 5.94344ZM27.3768 7.08242C27.4456 7.1292 27.4848 7.14277 27.4363 7.10313C27.4091 7.08076 27.3778 7.06243 27.3668 7.06243C27.356 7.06231 27.3604 7.07136 27.3768 7.08242Z" fill="black"/>
<path fill-rule="evenodd" clip-rule="evenodd" d="M4.30491 2.01661C4.28004 2.04684 4.28194 2.04744 4.32729 2.02387C4.39382 1.98924 4.39882 1.98364 4.36275 1.98364C4.34597 1.98364 4.31991 1.9984 4.30491 2.01661ZM12.1759 2.41508C12.1661 2.43186 12.1955 2.51922 12.2111 2.51922C12.2165 2.51922 12.213 2.49779 12.203 2.47161C12.1931 2.44543 12.1902 2.41865 12.1969 2.4121C12.2034 2.40556 12.2034 2.4002 12.1968 2.4002C12.1901 2.4002 12.1808 2.40686 12.1759 2.41508ZM39.2893 3.21082C39.2329 3.22296 40.0004 3.21856 40.1215 3.20606C40.1542 3.20273 39.9935 3.19963 39.7644 3.19916C39.5353 3.19868 39.3216 3.20392 39.2893 3.21082ZM40.1925 3.20082C40.197 3.20487 40.2499 3.2132 40.3099 3.21939C40.3803 3.22665 40.4014 3.22475 40.3694 3.21415C40.3202 3.19773 40.1767 3.1869 40.1925 3.20082ZM42.4027 3.21356C42.3771 3.22463 42.3984 3.22665 42.4622 3.21927C42.5167 3.21296 42.565 3.20463 42.5695 3.2007C42.5868 3.18595 42.4405 3.19713 42.4027 3.21356ZM42.6407 3.20606C42.7696 3.21939 43.2423 3.2226 43.2103 3.20987C43.1916 3.20249 43.0424 3.19713 42.8787 3.1982C42.7151 3.19916 42.608 3.20273 42.6407 3.20606ZM3.20508 3.87791C3.20508 4.10701 3.20794 4.19806 3.21139 4.08024C3.21496 3.96229 3.21496 3.77484 3.21139 3.66368C3.20794 3.5524 3.20496 3.6488 3.20508 3.87791ZM14.4101 4.75077C14.4102 4.81623 14.4139 4.84063 14.4183 4.80493C14.4229 4.76922 14.4227 4.71566 14.4182 4.68591C14.4137 4.65616 14.41 4.68531 14.4101 4.75077ZM16.4125 4.79041C16.4127 4.83409 16.4167 4.84956 16.4215 4.82492C16.4263 4.80017 16.426 4.76446 16.4211 4.74554C16.4161 4.72661 16.4122 4.74673 16.4125 4.79041ZM30.0398 5.94463C30.0589 5.94963 30.0902 5.94963 30.1092 5.94463C30.1283 5.93963 30.1127 5.93558 30.0745 5.93558C30.0363 5.93558 30.0207 5.93963 30.0398 5.94463ZM30.2387 5.94558C30.291 5.94963 30.3713 5.94963 30.4172 5.94546C30.4633 5.94129 30.4207 5.93796 30.3225 5.93796C30.2243 5.93808 30.1866 5.94153 30.2387 5.94558ZM30.6249 5.9457C30.6931 5.94951 30.8047 5.94951 30.8729 5.9457C30.9411 5.94177 30.8853 5.93868 30.7489 5.93868C30.6125 5.93868 30.5567 5.94177 30.6249 5.9457ZM31.1209 5.9457C31.1891 5.94951 31.3006 5.94951 31.3688 5.9457C31.437 5.94177 31.3813 5.93868 31.2449 5.93868C31.1085 5.93868 31.0527 5.94177 31.1209 5.9457ZM31.5377 5.94498C31.5623 5.94974 31.598 5.94963 31.617 5.94463C31.636 5.93963 31.6157 5.93582 31.5722 5.93594C31.5285 5.93618 31.513 5.94022 31.5377 5.94498ZM31.7652 5.94344C31.7967 5.95272 31.8002 6.00402 31.8053 6.55221L31.811 7.15086L31.8106 6.54614C31.8102 5.95617 31.8092 5.94129 31.7704 5.93737C31.7402 5.93427 31.7389 5.9357 31.7652 5.94344ZM27.3768 7.08242C27.4456 7.1292 27.4848 7.14277 27.4363 7.10313C27.4091 7.08076 27.3778 7.06243 27.3668 7.06243C27.356 7.06231 27.3604 7.07136 27.3768 7.08242Z" fill="black"/>
<path fill-rule="evenodd" clip-rule="evenodd" d="M4.30491 2.01661C4.28004 2.04684 4.28194 2.04744 4.32729 2.02387C4.39382 1.98924 4.39882 1.98364 4.36275 1.98364C4.34597 1.98364 4.31991 1.9984 4.30491 2.01661ZM12.1759 2.41508C12.1661 2.43186 12.1955 2.51922 12.2111 2.51922C12.2165 2.51922 12.213 2.49779 12.203 2.47161C12.1931 2.44543 12.1902 2.41865 12.1969 2.4121C12.2034 2.40556 12.2034 2.4002 12.1968 2.4002C12.1901 2.4002 12.1808 2.40686 12.1759 2.41508ZM39.2893 3.21082C39.2329 3.22296 40.0004 3.21856 40.1215 3.20606C40.1542 3.20273 39.9935 3.19963 39.7644 3.19916C39.5353 3.19868 39.3216 3.20392 39.2893 3.21082ZM40.1925 3.20082C40.197 3.20487 40.2499 3.2132 40.3099 3.21939C40.3803 3.22665 40.4014 3.22475 40.3694 3.21415C40.3202 3.19773 40.1767 3.1869 40.1925 3.20082ZM42.4027 3.21356C42.3771 3.22463 42.3984 3.22665 42.4622 3.21927C42.5167 3.21296 42.565 3.20463 42.5695 3.2007C42.5868 3.18595 42.4405 3.19713 42.4027 3.21356ZM42.6407 3.20606C42.7696 3.21939 43.2423 3.2226 43.2103 3.20987C43.1916 3.20249 43.0424 3.19713 42.8787 3.1982C42.7151 3.19916 42.608 3.20273 42.6407 3.20606ZM3.20508 3.87791C3.20508 4.10701 3.20794 4.19806 3.21139 4.08024C3.21496 3.96229 3.21496 3.77484 3.21139 3.66368C3.20794 3.5524 3.20496 3.6488 3.20508 3.87791ZM14.4101 4.75077C14.4102 4.81623 14.4139 4.84063 14.4183 4.80493C14.4229 4.76922 14.4227 4.71566 14.4182 4.68591C14.4137 4.65616 14.41 4.68531 14.4101 4.75077ZM16.4125 4.79041C16.4127 4.83409 16.4167 4.84956 16.4215 4.82492C16.4263 4.80017 16.426 4.76446 16.4211 4.74554C16.4161 4.72661 16.4122 4.74673 16.4125 4.79041ZM30.0398 5.94463C30.0589 5.94963 30.0902 5.94963 30.1092 5.94463C30.1283 5.93963 30.1127 5.93558 30.0745 5.93558C30.0363 5.93558 30.0207 5.93963 30.0398 5.94463ZM30.2387 5.94558C30.291 5.94963 30.3713 5.94963 30.4172 5.94546C30.4633 5.94129 30.4207 5.93796 30.3225 5.93796C30.2243 5.93808 30.1866 5.94153 30.2387 5.94558ZM30.6249 5.9457C30.6931 5.94951 30.8047 5.94951 30.8729 5.9457C30.9411 5.94177 30.8853 5.93868 30.7489 5.93868C30.6125 5.93868 30.5567 5.94177 30.6249 5.9457ZM31.1209 5.9457C31.1891 5.94951 31.3006 5.94951 31.3688 5.9457C31.437 5.94177 31.3813 5.93868 31.2449 5.93868C31.1085 5.93868 31.0527 5.94177 31.1209 5.9457ZM31.5377 5.94498C31.5623 5.94974 31.598 5.94963 31.617 5.94463C31.636 5.93963 31.6157 5.93582 31.5722 5.93594C31.5285 5.93618 31.513 5.94022 31.5377 5.94498ZM31.7652 5.94344C31.7967 5.95272 31.8002 6.00402 31.8053 6.55221L31.811 7.15086L31.8106 6.54614C31.8102 5.95617 31.8092 5.94129 31.7704 5.93737C31.7402 5.93427 31.7389 5.9357 31.7652 5.94344ZM27.3768 7.08242C27.4456 7.1292 27.4848 7.14277 27.4363 7.10313C27.4091 7.08076 27.3778 7.06243 27.3668 7.06243C27.356 7.06231 27.3604 7.07136 27.3768 7.08242Z" fill="black"/>
</g>
<defs>
<clipPath id="clip0_76_147">
<rect width="47.6066" height="13" fill="white" transform="translate(3.19678)"/>
</clipPath>
</defs>
</svg>
