<svg width="54" height="13" viewBox="0 0 54 13" fill="none" xmlns="http://www.w3.org/2000/svg">
<path d="M5.47235 3.45345V9.58375H3.98318V7.02564H1.66023V9.58423H0.177734V3.45345H1.66023V5.82887H3.98318V3.45345H5.47235ZM11.7944 3.45345L9.66988 7.54556V9.58089H8.17928V7.54556L6.05523 3.45345H7.75428L8.93293 5.95145L10.1125 3.45345H11.7944ZM16.0396 6.42702C16.3865 6.49934 16.6976 6.68944 16.9202 6.96506C17.1356 7.23257 17.2507 7.56702 17.2455 7.91046C17.2575 8.142 17.2165 8.37322 17.1255 8.5865C17.0346 8.79977 16.8962 8.98946 16.7208 9.1411C16.288 9.46228 15.7551 9.61917 15.2173 9.58375H12.3663V3.45345H15.1491C15.6639 3.42095 16.1744 3.5646 16.5968 3.8608C16.7682 4.00017 16.9042 4.17817 16.9936 4.38022C17.0829 4.58227 17.1232 4.80263 17.111 5.02323C17.1232 5.35575 17.0191 5.68212 16.8167 5.94621C16.6222 6.19055 16.3495 6.36037 16.0444 6.42702H16.0396ZM13.8455 5.95909H14.8166C15.3308 5.95909 15.5879 5.73951 15.5879 5.30036C15.5879 4.86121 15.3261 4.64163 14.8023 4.64163H13.8483L13.8455 5.95909ZM14.903 8.37792C15.4518 8.37792 15.7263 8.15262 15.7263 7.70202C15.7312 7.60532 15.7144 7.50874 15.6769 7.41947C15.6394 7.33019 15.5822 7.25052 15.5097 7.18639C15.3339 7.05182 15.1153 6.98556 14.8944 6.99988H13.845V8.37839L14.903 8.37792ZM21.1721 9.58375L19.8489 7.26938H19.5098V9.58423H18.0268V3.45345H20.5582C20.9824 3.44055 21.4037 3.52661 21.7888 3.70482C22.1043 3.85407 22.3674 4.09493 22.5439 4.39598C22.7151 4.70166 22.8019 5.04738 22.7953 5.39767C22.8065 5.80669 22.6765 6.20709 22.427 6.53148C22.1529 6.85962 21.7753 7.0847 21.3562 7.16969L22.8125 9.57898L21.1721 9.58375ZM19.5093 6.25482H20.427C20.6606 6.27449 20.893 6.20477 21.0772 6.05973C21.1503 5.98363 21.2066 5.89301 21.2424 5.79374C21.2782 5.69447 21.2928 5.58878 21.2851 5.48352C21.2909 5.37854 21.2748 5.27351 21.2381 5.17501C21.2013 5.07651 21.1446 4.98668 21.0714 4.91113C20.8923 4.7595 20.6605 4.68475 20.4265 4.70317H19.5093V6.25482ZM25.0224 4.63305V5.91616H27.0944V7.03089H25.0228V8.39222H27.3549V9.58184H23.5389V3.45345H27.3549V4.63257L25.0224 4.63305ZM29.6778 4.63305V5.91616H31.7499V7.03089H29.6783V8.39222H32.0103V9.58184H28.1944V3.45345H32.0103V4.63257L29.6778 4.63305ZM38.3643 6.5062C38.3749 7.06342 38.242 7.61401 37.9784 8.10508C37.7231 8.56856 37.3373 8.94688 36.8689 9.1931C36.3425 9.46345 35.7567 9.59744 35.1651 9.5828H32.8517V3.45345H35.1666C35.7587 3.43815 36.3454 3.56922 36.8747 3.83504C37.3411 4.0765 37.7256 4.45059 37.9799 4.91018C38.2435 5.40014 38.3759 5.94994 38.3643 6.5062ZM35.0363 8.25676C35.5287 8.28695 36.0131 8.12172 36.3843 7.79694C36.5502 7.62728 36.6787 7.4248 36.7617 7.20251C36.8447 6.98022 36.8802 6.74304 36.8661 6.5062C36.8803 6.26931 36.8449 6.03206 36.762 5.80968C36.6791 5.58731 36.5506 5.38474 36.3848 5.21498C36.0134 4.89054 35.529 4.72566 35.0368 4.75611H34.3352V8.25867L35.0363 8.25676ZM40.4807 8.10078V9.58423H38.9462V8.10031L40.4807 8.10078ZM44.0515 3.39334C44.7493 3.36653 45.4346 3.58416 45.989 4.00866C46.5067 4.42833 46.8586 5.01807 46.9821 5.67289H45.4128C45.3068 5.40145 45.1208 5.16859 44.8796 5.0051C44.6263 4.83898 44.3285 4.75395 44.0257 4.76136C43.8259 4.75488 43.6273 4.79454 43.4453 4.87727C43.2633 4.95999 43.1029 5.08355 42.9764 5.23835C42.6953 5.60165 42.5536 6.05364 42.5771 6.5124C42.5532 6.96989 42.6949 7.42069 42.9764 7.78215C43.1035 7.93586 43.2643 8.05839 43.4462 8.14033C43.6281 8.22227 43.8263 8.26145 44.0257 8.25485C44.3285 8.26226 44.6263 8.17723 44.8796 8.01111C45.1191 7.84974 45.3049 7.6203 45.4128 7.35238H46.9821C46.8562 8.00499 46.5048 8.59256 45.9895 9.01232C45.4362 9.43958 44.7505 9.65903 44.052 9.63241C43.5029 9.64426 42.9608 9.50799 42.4827 9.23793C42.035 8.97825 41.6721 8.59436 41.4381 8.13274C41.1857 7.62996 41.0594 7.07341 41.0698 6.51097C41.0594 5.94853 41.1857 5.39197 41.4381 4.88919C41.6723 4.42792 42.0351 4.04438 42.4827 3.78495C42.961 3.51598 43.5029 3.38071 44.0515 3.39334ZM50.7261 3.35805C51.2771 3.35095 51.8203 3.49002 52.3001 3.76111C52.7666 4.02498 53.1519 4.41147 53.4144 4.8787C53.6902 5.37208 53.8307 5.92958 53.8217 6.49475C53.8305 7.06225 53.6885 7.62192 53.4101 8.11652C53.1466 8.58548 52.7602 8.97369 52.2925 9.23936C51.8134 9.50373 51.2751 9.64238 50.728 9.64238C50.1808 9.64238 49.6425 9.50373 49.1634 9.23936C48.6957 8.97369 48.3093 8.58548 48.0458 8.11652C47.7674 7.62192 47.6254 7.06225 47.6342 6.49475C47.6252 5.92904 47.7673 5.37119 48.0458 4.8787C48.311 4.41199 48.6977 4.02591 49.1649 3.76158C49.6406 3.49173 50.1792 3.35251 50.7261 3.35805ZM50.7261 4.73655C50.5104 4.72659 50.2952 4.76371 50.0954 4.84534C49.8955 4.92697 49.7159 5.05116 49.5689 5.20925C49.2671 5.56827 49.1136 6.02885 49.1396 6.49713C49.1151 6.96375 49.2685 7.42229 49.5689 7.78024C49.8755 8.08594 50.2909 8.2576 50.7239 8.2576C51.1569 8.2576 51.5723 8.08594 51.8789 7.78024C52.1817 7.42343 52.3368 6.96446 52.3125 6.49713C52.337 6.03051 52.1836 5.57198 51.8832 5.21402C51.737 5.05474 51.5575 4.92947 51.3576 4.84705C51.1577 4.76464 50.9421 4.7266 50.7261 4.73655Z" fill="black"/>
</svg>
