<svg width="54" height="13" viewBox="0 0 54 13" fill="none" xmlns="http://www.w3.org/2000/svg">
<g clip-path="url(#clip0_15_13)">
<path d="M20.2262 5.56189C20.2262 6.76814 19.2721 7.71263 18.0129 7.71263H16.6485V9.95713H15.5511V3.41113H18.0125C19.2717 3.41113 20.2258 4.34627 20.2258 5.56189H20.2262ZM19.1289 5.56189C19.1289 4.89785 18.6613 4.42096 18.0125 4.42096H16.6481V6.70279H18.0125C18.6613 6.70279 19.1289 6.21655 19.1289 5.56189Z" fill="black"/>
<path d="M20.9694 3.93453C20.9694 3.57898 21.265 3.28918 21.6278 3.28918C21.9905 3.28918 22.2862 3.57898 22.2862 3.93453C22.2862 4.29009 21.9905 4.57988 21.6278 4.57988C21.265 4.57988 20.9694 4.28076 20.9694 3.93453ZM21.1127 5.28126H22.1429V9.95695H21.1127V5.28126Z" fill="black"/>
<path d="M27.6778 7.08608V9.95686H26.6476V7.18876C26.6476 6.47807 26.2277 6.10383 25.5792 6.10383C24.9308 6.10383 24.3676 6.49674 24.3676 7.45055V9.95686H23.3374V5.28114H24.3676V5.87983C24.6823 5.39359 25.1975 5.15979 25.8464 5.15979C26.9147 5.15979 27.6783 5.87048 27.6783 7.08608H27.6778Z" fill="black"/>
<path d="M33.5924 5.28132V9.74194C33.5924 11.2473 32.3903 11.9487 31.1406 11.9487C30.0913 11.9487 29.2801 11.5651 28.8797 10.8171L29.7671 10.3122C29.977 10.7144 30.3298 11.0322 31.1601 11.0322C32.0475 11.0322 32.5816 10.5553 32.5816 9.74152V9.17126C32.2189 9.67617 31.6561 9.98464 30.9215 9.98464C29.5762 9.98464 28.5173 8.90905 28.5173 7.57211C28.5173 6.23513 29.5762 5.15955 30.9215 5.15955C31.6561 5.15955 32.2189 5.46801 32.5816 5.97292V5.28089H33.5928L33.5924 5.28132ZM32.5812 7.57253C32.5812 6.73072 31.9323 6.10447 31.0644 6.10447C30.1965 6.10447 29.5476 6.73114 29.5476 7.57253C29.5476 8.41389 30.1965 9.04056 31.0644 9.04056C31.9323 9.04056 32.5812 8.41389 32.5812 7.57253Z" fill="black"/>
<path d="M34.5085 8.47029L35.4531 7.92806C35.6916 8.59207 36.2069 9.03162 37.1133 9.03162C38.0194 9.03162 38.3535 8.64806 38.3535 8.17118C38.3535 7.59157 37.8286 7.39513 36.8365 7.09559C35.7968 6.78712 34.7856 6.41288 34.7856 5.17862C34.7856 3.94436 35.8063 3.28967 36.9323 3.28967C38.058 3.28967 38.8402 3.85992 39.2604 4.72971L38.3348 5.25332C38.0961 4.72971 37.6764 4.33683 36.9323 4.33683C36.2929 4.33683 35.8829 4.65462 35.8829 5.15021C35.8829 5.64577 36.2547 5.87022 37.2282 6.16934C38.3352 6.51514 39.4511 6.85205 39.4511 8.15166C39.4511 9.34859 38.4781 10.078 37.0849 10.078C35.7682 10.078 34.8622 9.44192 34.509 8.46945L34.5085 8.47029Z" fill="black"/>
<path d="M45.2702 5.28114V9.95686H44.2399V9.2835C43.8773 9.77906 43.3143 10.0782 42.5702 10.0782C41.2731 10.0782 40.1946 9.00263 40.1946 7.619C40.1946 6.23537 41.2731 5.15979 42.5702 5.15979C43.3143 5.15979 43.8773 5.45891 44.2399 5.94515V5.28114H45.2702ZM44.2399 7.619C44.2399 6.74921 43.5911 6.12295 42.7326 6.12295C41.8743 6.12295 41.2252 6.74963 41.2252 7.619C41.2252 8.48837 41.8743 9.11505 42.7326 9.11505C43.5911 9.11505 44.2399 8.48837 44.2399 7.619Z" fill="black"/>
<path d="M47.8464 5.18804V5.28137H48.9725V6.25385H47.8464V9.9571H46.8161V6.25385H46.0911V5.28137H46.8161V5.18804C46.8161 3.92575 47.5411 3.19639 48.9725 3.28974V4.26222C48.2474 4.19687 47.8464 4.468 47.8464 5.18804Z" fill="black"/>
<path d="M51.691 9.15287C52.263 9.15287 52.6925 8.9004 52.9215 8.57327L53.7707 9.05954C53.3319 9.69553 52.6165 10.0787 51.6813 10.0787C50.107 10.0787 49.0864 9.02217 49.0864 7.61945C49.0864 6.21677 50.107 5.16028 51.6053 5.16028C53.1033 5.16028 54 6.28251 54 7.62923C54 7.76967 53.9809 7.91903 53.9619 8.05012H50.1646C50.327 8.77948 50.9278 9.15372 51.691 9.15372V9.15287ZM52.9596 7.22658C52.8163 6.42252 52.2155 6.0763 51.5952 6.0763C50.8227 6.0763 50.2978 6.5252 50.1545 7.22658H52.9596Z" fill="black"/>
<path d="M7.13969 0.8366L5.80468 2.87066L0.000244141 2.86939L4.88741 10.286L8.39197 4.91659L5.69344 4.90812L6.35832 3.90339H9.07895L9.74862 2.86981H7.02669L7.71151 1.84387H11.6507L5.49562 11.2199L6.11593 12.1648L13.5324 0.835327L7.13969 0.8366ZM1.92178 3.90976H5.13329L3.79223 5.93618H6.45876L4.85278 8.36271L1.92178 3.90976Z" fill="black"/>
<path d="M4.85254 8.36211L5.49232 9.35834L6.53858 7.75537L5.75465 6.99927L4.85254 8.36211Z" fill="black"/>
<path d="M5.12754 3.90966L5.80153 2.8676L3.72719 2.86462L3.07007 3.90966H5.12754Z" fill="black"/>
<path d="M8.28115 3.90209L8.94434 2.86851L7.03751 2.86597L6.35791 3.90337L8.28115 3.90209Z" fill="black"/>
<path d="M9.50123 1.84599L10.1774 0.835327H8.37444L7.71216 1.84684L9.50123 1.84599Z" fill="black"/>
</g>
<defs>
<clipPath id="clip0_15_13">
<rect width="54" height="13" fill="white"/>
</clipPath>
</defs>
</svg>
