<svg width="48" height="15" viewBox="0 0 48 15" fill="none" xmlns="http://www.w3.org/2000/svg">
<g clip-path="url(#clip0_76_182)">
<mask id="mask0_76_182" style="mask-type:luminance" maskUnits="userSpaceOnUse" x="6" y="2" width="36" height="11">
<path d="M41.6426 2.4046H6.03955V12.3138H41.6426V2.4046Z" fill="white"/>
</mask>
<g mask="url(#mask0_76_182)">
<path d="M15.3873 8.3679L7.43359 12.2176C6.65313 12.5947 5.82006 11.8142 6.1796 11.0338L7.37221 8.4293C7.45406 8.24809 7.50959 8.06101 7.53883 7.86807H8.65251L8.97698 8.13116L8.46836 8.43805C8.36313 8.50824 8.35436 8.64854 8.45959 8.71869C8.74021 8.92038 9.30144 9.20978 9.78374 8.92914L10.3275 8.5696L11.6954 8.4556C11.6954 8.4556 12.546 8.3767 12.9845 7.76282C13.0634 7.65762 13.0634 7.51732 12.9845 7.41208C12.546 6.79824 11.6954 6.7193 11.6954 6.7193L10.3275 6.61406L9.78374 6.25453C9.30144 5.96515 8.74021 6.2633 8.45959 6.465C8.35436 6.52638 8.36313 6.67545 8.46836 6.73685L8.97698 7.04375L8.65251 7.30683H7.5476C7.52421 7.11394 7.47452 6.92393 7.39852 6.73685L6.11821 3.72023C5.77621 2.931 6.64437 2.15931 7.40729 2.5627L15.4136 6.7544C16.08 7.10514 16.0625 8.04346 15.3873 8.3679Z" fill="black"/>
<path d="M18.0066 11.8072V2.84509H21.9883C22.8504 2.84509 23.5674 3.13956 24.1392 3.7285C24.7111 4.30891 24.997 5.00454 24.997 5.8154C24.997 6.43848 24.8178 6.99327 24.4593 7.47981C24.1008 7.96631 23.6356 8.29492 23.0638 8.46565L25.1123 11.8072H23.3967L21.4378 8.65768H19.5173V11.8072H18.0066ZM21.9243 7.32618C22.3767 7.32618 22.7565 7.18105 23.0638 6.89087C23.3711 6.59211 23.5247 6.21656 23.5247 5.76419C23.5247 5.32889 23.3839 4.96187 23.1022 4.66313C22.8205 4.36439 22.4492 4.21502 21.9883 4.21502H19.5173V7.32618H21.9243Z" fill="black"/>
<path d="M26.3733 11.8072V2.84509H27.9096V11.8072H26.3733Z" fill="black"/>
<path d="M30.4704 4.08689C31.3581 3.19921 32.4336 2.75537 33.6968 2.75537C34.6186 2.75537 35.438 3.0029 36.155 3.49795C36.8719 3.98446 37.4097 4.64169 37.7681 5.46962L36.3086 5.86651C36.0696 5.35439 35.7197 4.94896 35.2588 4.65022C34.7979 4.35149 34.2772 4.20212 33.6968 4.20212C32.8347 4.20212 32.1135 4.50512 31.5331 5.11113C30.9527 5.71714 30.6625 6.45972 30.6625 7.33887C30.6625 8.20948 30.9484 8.9478 31.5203 9.55379C32.1007 10.1513 32.8262 10.45 33.6968 10.45C34.3796 10.45 34.9771 10.2494 35.4892 9.84826C36.0013 9.4471 36.3427 8.89656 36.5135 8.19668L33.7224 8.20948L33.6968 6.90357H37.9986V7.46691C37.9986 8.73867 37.5889 9.79706 36.7695 10.6421C35.9587 11.487 34.9344 11.9095 33.6968 11.9095C32.4336 11.9095 31.3581 11.4614 30.4704 10.5652C29.5828 9.66902 29.1389 8.59354 29.1389 7.33887C29.1389 6.0671 29.5828 4.9831 30.4704 4.08689Z" fill="black"/>
<path d="M39.2263 11.8072V2.84509H40.7627V11.8072H39.2263Z" fill="black"/>
</g>
</g>
<defs>
<clipPath id="clip0_76_182">
<rect width="35.9209" height="9.90921" fill="white" transform="translate(6.03955 2.4046)"/>
</clipPath>
</defs>
</svg>
