<svg width="54" height="13" viewBox="0 0 54 13" fill="none" xmlns="http://www.w3.org/2000/svg">
<g clip-path="url(#clip0_15_11)">
<path d="M5 2.00366H13.4236V4.2209H10.5965V10.9931H7.82519V4.2209H5V2.00366Z" fill="black"/>
<path d="M14.7706 2.00366H18.4154L19.8208 7.47351L21.2166 2.00366H24.8594V10.9963H22.5863V4.1382L20.8405 10.9963H18.7862L17.0405 4.1382V10.9963H14.7673L14.7706 2.00366Z" fill="black"/>
<path d="M25.8252 2.00366H28.9004L30.7072 5.03747L32.518 2.00366H35.5802L32.0926 7.22997V10.9963H29.3187V7.22997L25.8252 2.00366Z" fill="black"/>
<path d="M35.5483 8.02113L38.1852 7.85574C38.2423 8.28508 38.3586 8.61218 38.5339 8.83705C38.8193 9.20127 39.2271 9.38317 39.7575 9.38274C40.1533 9.38274 40.4581 9.28961 40.672 9.10338C40.8859 8.91714 40.9928 8.70139 40.9928 8.45611C40.9928 8.223 40.8909 8.0144 40.6869 7.83034C40.483 7.64627 40.0098 7.47263 39.2672 7.3094C38.0518 7.03548 37.1859 6.67147 36.6693 6.21739C36.4169 6.00572 36.2152 5.73972 36.0794 5.43917C35.9436 5.13862 35.877 4.81124 35.8848 4.48136C35.8862 4.01473 36.0257 3.559 36.2855 3.17186C36.5526 2.76075 36.9544 2.43777 37.4909 2.20291C38.0274 1.96806 38.7634 1.85041 39.6991 1.84998C40.8452 1.84998 41.7192 2.06356 42.321 2.49073C42.9228 2.9179 43.2807 3.59772 43.3946 4.5302L40.7818 4.68388C40.7125 4.27885 40.5666 3.9843 40.344 3.80024C40.1215 3.61617 39.814 3.52436 39.4218 3.52479C39.0996 3.52479 38.8569 3.59338 38.6937 3.73056C38.6174 3.78954 38.5556 3.86531 38.5132 3.95202C38.4707 4.03873 38.4487 4.13406 38.4489 4.23066C38.4513 4.30613 38.4708 4.38006 38.5057 4.44693C38.5407 4.5138 38.5903 4.57187 38.6508 4.6168C38.7807 4.73532 39.0908 4.8458 39.5809 4.94825C40.7932 5.20872 41.6611 5.47353 42.1846 5.74268C42.7081 6.01183 43.0895 6.34415 43.329 6.73963C43.5689 7.14148 43.6928 7.60228 43.6868 8.07062C43.6895 8.63797 43.5233 9.19322 43.2095 9.66534C42.8835 10.1583 42.4194 10.5435 41.8755 10.7723C41.3044 11.0237 40.5845 11.1494 39.716 11.1494C38.1902 11.1494 37.1337 10.8548 36.5466 10.2657C35.9595 9.67663 35.6267 8.92843 35.5483 8.02113Z" fill="black"/>
<path d="M47.1478 13H44.8676L47.1446 0H49.4249L47.1478 13Z" fill="black"/>
</g>
<defs>
<clipPath id="clip0_15_11">
<rect width="54" height="13" fill="white"/>
</clipPath>
</defs>
</svg>
