<svg width="48" height="15" viewBox="0 0 48 15" fill="none" xmlns="http://www.w3.org/2000/svg">
<g clip-path="url(#clip0_76_157)">
<path d="M24.7506 9.78602L26.8413 4.56177H26.0388L24.5254 8.47993L23.0119 4.56177H22.1953L24.2931 9.78602H24.7506Z" fill="#00000A"/>
<path d="M28.5285 11.092L30.6825 5.87488H29.8941L28.7185 8.91059L27.5711 5.87488H26.7827L28.3384 9.70835L27.7682 11.092H28.5285Z" fill="#00000A"/>
<path d="M36.9829 9.78601V7.41393C36.9829 6.40434 36.4057 5.76898 35.3921 5.76898C34.7726 5.76898 34.3854 5.98078 34.1039 6.42554C33.9067 6.01608 33.3999 5.76898 32.8931 5.76898C32.3863 5.76898 32.0906 5.9243 31.7739 6.29848H31.7598V5.87488H31.084V9.78601H31.8161V7.59041C31.8161 6.8209 32.1329 6.43965 32.7805 6.43965C33.3084 6.43965 33.6674 6.74324 33.6674 7.51274V9.78601H34.3995V7.58335C34.3995 6.7997 34.6811 6.43965 35.3287 6.43965C35.9411 6.43965 36.2509 6.85621 36.2509 7.59746V9.78601H36.9829Z" fill="#00000A"/>
<path d="M41.7832 7.85869C41.7973 6.61617 40.7836 5.76898 39.7066 5.76898C38.5099 5.76898 37.5737 6.65147 37.5737 7.84454C37.5737 8.94589 38.5522 9.88482 39.6503 9.88482C40.8963 9.88483 41.7691 8.90354 41.7832 7.85869ZM41.0511 7.81634C41.0516 8.00113 41.0159 8.18418 40.9458 8.35484C40.8758 8.5255 40.773 8.68037 40.6433 8.81044C40.5136 8.94051 40.3596 9.04318 40.1904 9.11248C40.0211 9.18179 39.8399 9.21634 39.6573 9.21413C38.9182 9.21413 38.3058 8.56464 38.3058 7.82339C38.3096 7.45788 38.4547 7.10842 38.7099 6.8498C38.9652 6.59118 39.3103 6.44396 39.6714 6.43965C39.8515 6.43773 40.0302 6.47189 40.1972 6.54016C40.3641 6.60842 40.5161 6.70944 40.6444 6.8374C40.7726 6.96536 40.8746 7.11774 40.9444 7.28574C41.0142 7.45375 41.0505 7.63408 41.0511 7.81634V7.81634Z" fill="#00000A"/>
<path d="M12.3064 10.2662C12.3661 10.2667 12.4252 10.2552 12.4804 10.2324C12.5356 10.2095 12.5858 10.1758 12.6279 10.1331C12.5862 10.1767 12.5363 10.2114 12.481 10.2352C12.4258 10.2589 12.3664 10.2711 12.3064 10.2711C12.2464 10.2711 12.187 10.2589 12.1318 10.2352C12.0765 10.2114 12.0266 10.1767 11.9849 10.1331C12.027 10.1758 12.0772 10.2095 12.1324 10.2324C12.1876 10.2552 12.2468 10.2667 12.3064 10.2662V10.2662Z" fill="#00000A"/>
<path d="M18.0256 1.0899H7.19144C6.6533 1.0899 6.21704 1.53143 6.21704 2.07607V12.9239C6.21704 13.4686 6.6533 13.9101 7.19144 13.9101H18.0256C18.5638 13.9101 19 13.4686 19 12.9239V2.07607C19 1.53143 18.5638 1.0899 18.0256 1.0899Z" fill="black"/>
<path d="M12.7597 7.68229V9.81242C12.7585 9.93248 12.7114 10.0474 12.6281 10.1329C12.5423 10.2182 12.4269 10.2661 12.3066 10.2661C12.1863 10.2661 12.0709 10.2182 11.9851 10.1329C11.9018 10.0474 11.8547 9.93248 11.8535 9.81242V8.13592H10.3286C10.2693 8.13657 10.2105 8.12532 10.1556 8.10281C10.1006 8.0803 10.0506 8.04699 10.0085 8.0048C9.96635 7.96262 9.9329 7.91239 9.91007 7.85703C9.88724 7.80167 9.87549 7.74228 9.87549 7.68229C9.87549 7.62231 9.88724 7.56291 9.91007 7.50756C9.9329 7.4522 9.96635 7.40197 10.0085 7.35978C10.0506 7.31759 10.1006 7.28428 10.1556 7.26178C10.2105 7.23927 10.2693 7.22802 10.3286 7.22866H12.3066C12.4208 7.22821 12.5307 7.27237 12.6135 7.35193C12.6598 7.39246 12.6964 7.44302 12.7207 7.49985C12.7319 7.52892 12.7417 7.55854 12.7499 7.5886C12.7559 7.61949 12.7591 7.65084 12.7597 7.68229V7.68229Z" fill="white"/>
<path d="M14.6706 5.73515V10.5316C14.6706 10.5394 14.6703 10.5471 14.6701 10.5549C14.6635 10.6733 14.6117 10.7846 14.5256 10.8651C14.4395 10.9455 14.3258 10.989 14.2087 10.9862C14.0915 10.9834 13.98 10.9347 13.8977 10.8502C13.8154 10.7657 13.7688 10.6522 13.7677 10.5335V6.19041H9.49292C9.43383 6.19086 9.37524 6.17947 9.32052 6.1569C9.2658 6.13433 9.21604 6.10102 9.1741 6.0589C9.13216 6.01677 9.09887 5.96666 9.07616 5.91146C9.05344 5.85625 9.04175 5.79704 9.04175 5.73724C9.04175 5.67744 9.05344 5.61823 9.07616 5.56302C9.09887 5.50781 9.13216 5.45771 9.1741 5.41558C9.21604 5.37345 9.2658 5.34015 9.32052 5.31758C9.37524 5.295 9.43383 5.28362 9.49292 5.28407H14.2191C14.279 5.28414 14.3383 5.29626 14.3935 5.31975C14.4487 5.34323 14.4987 5.3776 14.5407 5.42085L14.5409 5.4206C14.5458 5.42576 14.5507 5.43092 14.5556 5.43607C14.5649 5.44663 14.5739 5.45768 14.5825 5.46922C14.5947 5.48592 14.6058 5.50339 14.6157 5.52153C14.6192 5.52767 14.6224 5.53381 14.6253 5.53994C14.629 5.54731 14.6324 5.55492 14.6356 5.56253C14.6409 5.57555 14.6459 5.58906 14.6502 5.60256L14.6505 5.6033C14.6569 5.62438 14.6619 5.64587 14.6654 5.66763V5.66837C14.6676 5.68286 14.6691 5.69759 14.6701 5.71232C14.6703 5.71993 14.6706 5.72754 14.6706 5.73515Z" fill="white"/>
<path d="M16.6933 11.4135C16.6933 11.4214 16.693 11.429 16.6928 11.4368C16.6864 11.5435 16.6434 11.6445 16.5712 11.7224C16.4989 11.8003 16.402 11.8501 16.2973 11.8633C16.1926 11.8765 16.0866 11.8522 15.9977 11.7945C15.9088 11.7369 15.8426 11.6496 15.8107 11.5478C15.8065 11.5342 15.803 11.5204 15.8002 11.5064C15.7984 11.499 15.7972 11.4916 15.796 11.4842C15.7926 11.4615 15.7909 11.4385 15.7909 11.4155L15.7811 4.27722V4.2399L8.72336 4.24947C8.66426 4.24996 8.60564 4.23859 8.5509 4.21603C8.49615 4.19348 8.44637 4.16017 8.4044 4.11804C8.36244 4.07592 8.32913 4.0258 8.3064 3.97058C8.28367 3.91535 8.27197 3.85613 8.27197 3.79631C8.27197 3.73649 8.28367 3.67726 8.3064 3.62204C8.32913 3.56682 8.36244 3.5167 8.4044 3.47457C8.44637 3.43244 8.49615 3.39914 8.5509 3.37658C8.60564 3.35402 8.66426 3.34266 8.72336 3.34314L16.2318 3.33307H16.2369C16.3505 3.33309 16.46 3.3765 16.5433 3.45461C16.6267 3.53273 16.6779 3.6398 16.6867 3.75444C16.6869 3.75788 16.6871 3.76156 16.6871 3.76524C16.6874 3.77236 16.6881 3.77924 16.6881 3.78636C16.6881 3.7952 16.683 3.80257 16.6828 3.81141L16.6933 11.4135Z" fill="white"/>
<path d="M16.6919 11.4367C16.686 11.5436 16.6432 11.6451 16.571 11.7233C16.4987 11.8016 16.4016 11.8517 16.2966 11.8649C16.1916 11.8781 16.0854 11.8535 15.9964 11.7956C15.9074 11.7376 15.8414 11.6499 15.8098 11.5477C15.8418 11.6495 15.9079 11.7367 15.9968 11.7944C16.0857 11.852 16.1917 11.8763 16.2964 11.8631C16.4012 11.85 16.4981 11.8001 16.5703 11.7222C16.6425 11.6443 16.6856 11.5433 16.6919 11.4367V11.4367Z" fill="#00000A"/>
<path d="M14.666 5.66905C14.6623 5.64675 14.6571 5.62471 14.6504 5.60309C14.6573 5.62465 14.6625 5.6467 14.666 5.66905V5.66905Z" fill="#00000A"/>
<path d="M14.6698 5.71266C14.6688 5.69783 14.6673 5.68299 14.665 5.6684C14.6674 5.68306 14.669 5.69784 14.6698 5.71266V5.71266Z" fill="#00000A"/>
<path d="M15.7918 11.4154C15.7917 11.4385 15.7935 11.4614 15.797 11.4842C15.7932 11.4608 15.7913 11.4372 15.7913 11.4135L15.7817 4.27716L15.7918 11.4154Z" fill="white"/>
</g>
<defs>
<clipPath id="clip0_76_157">
<rect width="35.5657" height="12.8202" fill="white" transform="translate(6.21704 1.0899)"/>
</clipPath>
</defs>
</svg>
